ISO-10303-21;
HEADER;
FILE_DESCRIPTION(('Open CASCADE Model'),'2;1');
FILE_NAME('Open CASCADE Shape Model','2026-07-30T23:42:03',('Author'),(
    'Open CASCADE'),'Open CASCADE STEP processor 7.9','Open CASCADE 7.9'
  ,'Unknown');
FILE_SCHEMA(('AUTOMOTIVE_DESIGN { 1 0 10303 214 1 1 1 1 }'));
ENDSEC;
DATA;
#1 = APPLICATION_PROTOCOL_DEFINITION('international standard',
  'automotive_design',2000,#2);
#2 = APPLICATION_CONTEXT(
  'core data for automotive mechanical design processes');
#3 = SHAPE_DEFINITION_REPRESENTATION(#4,#10);
#4 = PRODUCT_DEFINITION_SHAPE('','',#5);
#5 = PRODUCT_DEFINITION('design','',#6,#9);
#6 = PRODUCT_DEFINITION_FORMATION('','',#7);
#7 = PRODUCT('=>[0:1:1:2]','=>[0:1:1:2]','',(#8));
#8 = PRODUCT_CONTEXT('',#2,'mechanical');
#9 = PRODUCT_DEFINITION_CONTEXT('part definition',#2,'design');
#10 = SHAPE_REPRESENTATION('',(#11,#15),#19);
#11 = AXIS2_PLACEMENT_3D('',#12,#13,#14);
#12 = CARTESIAN_POINT('',(0.,0.,0.));
#13 = DIRECTION('',(0.,0.,1.));
#14 = DIRECTION('',(1.,0.,-0.));
#15 = AXIS2_PLACEMENT_3D('',#16,#17,#18);
#16 = CARTESIAN_POINT('',(0.,-48.,91.));
#17 = DIRECTION('',(0.,0.,1.));
#18 = DIRECTION('',(1.,0.,-0.));
#19 = ( GEOMETRIC_REPRESENTATION_CONTEXT(3) 
GLOBAL_UNCERTAINTY_ASSIGNED_CONTEXT((#23)) GLOBAL_UNIT_ASSIGNED_CONTEXT(
(#20,#21,#22)) REPRESENTATION_CONTEXT('Context #1',
  '3D Context with UNIT and UNCERTAINTY') );
#20 = ( LENGTH_UNIT() NAMED_UNIT(*) SI_UNIT(.MILLI.,.METRE.) );
#21 = ( NAMED_UNIT(*) PLANE_ANGLE_UNIT() SI_UNIT($,.RADIAN.) );
#22 = ( NAMED_UNIT(*) SI_UNIT($,.STERADIAN.) SOLID_ANGLE_UNIT() );
#23 = UNCERTAINTY_MEASURE_WITH_UNIT(LENGTH_MEASURE(2.E-06),#20,
  'distance_accuracy_value','confusion accuracy');
#24 = PRODUCT_RELATED_PRODUCT_CATEGORY('part',$,(#7));
#25 = SHAPE_DEFINITION_REPRESENTATION(#26,#32);
#26 = PRODUCT_DEFINITION_SHAPE('','',#27);
#27 = PRODUCT_DEFINITION('design','',#28,#31);
#28 = PRODUCT_DEFINITION_FORMATION('','',#29);
#29 = PRODUCT('ROUND_V2_CAMERA_POD','ROUND_V2_CAMERA_POD','',(#30));
#30 = PRODUCT_CONTEXT('',#2,'mechanical');
#31 = PRODUCT_DEFINITION_CONTEXT('part definition',#2,'design');
#32 = ADVANCED_BREP_SHAPE_REPRESENTATION('',(#11,#33),#76);
#33 = MANIFOLD_SOLID_BREP('',#34);
#34 = CLOSED_SHELL('',(#35));
#35 = ADVANCED_FACE('',(#36),#40,.T.);
#36 = FACE_BOUND('',#37,.T.);
#37 = VERTEX_LOOP('',#38);
#38 = VERTEX_POINT('',#39);
#39 = CARTESIAN_POINT('',(1.224646799147E-15,-7.498798913309E-32,-11.));
#40 = ( BOUNDED_SURFACE() B_SPLINE_SURFACE(2,2,(
    (#41,#42,#43,#44,#45)
    ,(#46,#47,#48,#49,#50)
    ,(#51,#52,#53,#54,#55)
    ,(#56,#57,#58,#59,#60)
    ,(#61,#62,#63,#64,#65)
    ,(#66,#67,#68,#69,#70)
    ,(#71,#72,#73,#74,#75
)),.UNSPECIFIED.,.T.,.F.,.F.) B_SPLINE_SURFACE_WITH_KNOTS((1,2,2,2,2,1),
  (3,2,3),(-2.094395102393,0.,2.094395102393,4.188790204786,
    6.28318530718,8.377580409573),(-1.570796326795,0.,1.570796326795),
.UNSPECIFIED.) GEOMETRIC_REPRESENTATION_ITEM() RATIONAL_B_SPLINE_SURFACE
((
    (1.,0.707106781187,1.,0.707106781187,1.)
    ,(0.5,0.353553390593,0.5,0.353553390593,0.5)
    ,(1.,0.707106781187,1.,0.707106781187,1.)
    ,(0.5,0.353553390593,0.5,0.353553390593,0.5)
    ,(1.,0.707106781187,1.,0.707106781187,1.)
    ,(0.5,0.353553390593,0.5,0.353553390593,0.5)
,(1.,0.707106781187,1.,0.707106781187,1.
))) REPRESENTATION_ITEM('') SURFACE() );
#41 = CARTESIAN_POINT('',(1.224646799147E-15,0.,-11.));
#42 = CARTESIAN_POINT('',(20.,0.,-11.));
#43 = CARTESIAN_POINT('',(20.,0.,0.));
#44 = CARTESIAN_POINT('',(20.,0.,11.));
#45 = CARTESIAN_POINT('',(1.224646799147E-15,0.,11.));
#46 = CARTESIAN_POINT('',(1.224646799147E-15,5.302876193625E-16,-11.));
#47 = CARTESIAN_POINT('',(20.,8.660254037844,-11.));
#48 = CARTESIAN_POINT('',(20.,8.660254037844,0.));
#49 = CARTESIAN_POINT('',(20.,8.660254037844,11.));
#50 = CARTESIAN_POINT('',(1.224646799147E-15,5.302876193625E-16,11.));
#51 = CARTESIAN_POINT('',(-6.123233995737E-16,2.651438096812E-16,-11.));
#52 = CARTESIAN_POINT('',(-10.,4.330127018922,-11.));
#53 = CARTESIAN_POINT('',(-10.,4.330127018922,0.));
#54 = CARTESIAN_POINT('',(-10.,4.330127018922,11.));
#55 = CARTESIAN_POINT('',(-6.123233995737E-16,2.651438096812E-16,11.));
#56 = CARTESIAN_POINT('',(-2.449293598295E-15,7.498798913309E-32,-11.));
#57 = CARTESIAN_POINT('',(-40.,1.224646799147E-15,-11.));
#58 = CARTESIAN_POINT('',(-40.,1.224646799147E-15,0.));
#59 = CARTESIAN_POINT('',(-40.,1.224646799147E-15,11.));
#60 = CARTESIAN_POINT('',(-2.449293598295E-15,7.498798913309E-32,11.));
#61 = CARTESIAN_POINT('',(-6.123233995737E-16,-2.651438096812E-16,-11.)
  );
#62 = CARTESIAN_POINT('',(-10.,-4.330127018922,-11.));
#63 = CARTESIAN_POINT('',(-10.,-4.330127018922,0.));
#64 = CARTESIAN_POINT('',(-10.,-4.330127018922,11.));
#65 = CARTESIAN_POINT('',(-6.123233995737E-16,-2.651438096812E-16,11.));
#66 = CARTESIAN_POINT('',(1.224646799147E-15,-5.302876193625E-16,-11.));
#67 = CARTESIAN_POINT('',(20.,-8.660254037844,-11.));
#68 = CARTESIAN_POINT('',(20.,-8.660254037844,0.));
#69 = CARTESIAN_POINT('',(20.,-8.660254037844,11.));
#70 = CARTESIAN_POINT('',(1.224646799147E-15,-5.302876193625E-16,11.));
#71 = CARTESIAN_POINT('',(1.224646799147E-15,0.,-11.));
#72 = CARTESIAN_POINT('',(20.,0.,-11.));
#73 = CARTESIAN_POINT('',(20.,0.,0.));
#74 = CARTESIAN_POINT('',(20.,0.,11.));
#75 = CARTESIAN_POINT('',(1.224646799147E-15,0.,11.));
#76 = ( GEOMETRIC_REPRESENTATION_CONTEXT(3) 
GLOBAL_UNCERTAINTY_ASSIGNED_CONTEXT((#80)) GLOBAL_UNIT_ASSIGNED_CONTEXT(
(#77,#78,#79)) REPRESENTATION_CONTEXT('Context #1',
  '3D Context with UNIT and UNCERTAINTY') );
#77 = ( LENGTH_UNIT() NAMED_UNIT(*) SI_UNIT(.MILLI.,.METRE.) );
#78 = ( NAMED_UNIT(*) PLANE_ANGLE_UNIT() SI_UNIT($,.RADIAN.) );
#79 = ( NAMED_UNIT(*) SI_UNIT($,.STERADIAN.) SOLID_ANGLE_UNIT() );
#80 = UNCERTAINTY_MEASURE_WITH_UNIT(LENGTH_MEASURE(2.E-06),#77,
  'distance_accuracy_value','confusion accuracy');
#81 = CONTEXT_DEPENDENT_SHAPE_REPRESENTATION(#82,#84);
#82 = ( REPRESENTATION_RELATIONSHIP('','',#32,#10) 
REPRESENTATION_RELATIONSHIP_WITH_TRANSFORMATION(#83) 
SHAPE_REPRESENTATION_RELATIONSHIP() );
#83 = ITEM_DEFINED_TRANSFORMATION('','',#11,#15);
#84 = PRODUCT_DEFINITION_SHAPE('Placement','Placement of an item',#85);
#85 = NEXT_ASSEMBLY_USAGE_OCCURRENCE('1','=>[0:1:1:2]','',#5,#27,$);
#86 = PRODUCT_RELATED_PRODUCT_CATEGORY('part',$,(#29));
#87 = MECHANICAL_DESIGN_GEOMETRIC_PRESENTATION_REPRESENTATION('',(#88),
  #76);
#88 = STYLED_ITEM('color',(#89),#33);
#89 = PRESENTATION_STYLE_ASSIGNMENT((#90));
#90 = SURFACE_STYLE_USAGE(.BOTH.,#91);
#91 = SURFACE_SIDE_STYLE('',(#92));
#92 = SURFACE_STYLE_FILL_AREA(#93);
#93 = FILL_AREA_STYLE('',(#94));
#94 = FILL_AREA_STYLE_COLOUR('',#95);
#95 = COLOUR_RGB('',0.717647050975,0.529411766244,0.368627449173);

#96=DESCRIPTIVE_REPRESENTATION_ITEM('cadpy:generator','cadpy');
#97=REPRESENTATION('cadpy:generator',(#96),#19);
#98=PROPERTY_DEFINITION('cadpy metadata','cadpy:generator',#5);
#99=PROPERTY_DEFINITION_REPRESENTATION(#98,#97);
#100=DESCRIPTIVE_REPRESENTATION_ITEM('cadpy:entryKind','part');
#101=REPRESENTATION('cadpy:entryKind',(#100),#19);
#102=PROPERTY_DEFINITION('cadpy metadata','cadpy:entryKind',#5);
#103=PROPERTY_DEFINITION_REPRESENTATION(#102,#101);
#104=DESCRIPTIVE_REPRESENTATION_ITEM('cadpy:sourcePath','../../../../cad/round_v1/gen_round_v1_muzzle_badge.py');
#105=REPRESENTATION('cadpy:sourcePath',(#104),#19);
#106=PROPERTY_DEFINITION('cadpy metadata','cadpy:sourcePath',#5);
#107=PROPERTY_DEFINITION_REPRESENTATION(#106,#105);
#108=DESCRIPTIVE_REPRESENTATION_ITEM('cadpy:sourceHash','e3715ef615266f0ebe541ed279724f63a76a7f068e0ae66d336af3ebb1869b59');
#109=REPRESENTATION('cadpy:sourceHash',(#108),#19);
#110=PROPERTY_DEFINITION('cadpy metadata','cadpy:sourceHash',#5);
#111=PROPERTY_DEFINITION_REPRESENTATION(#110,#109);
ENDSEC;
END-ISO-10303-21;
