ISO-10303-21;
HEADER;
FILE_DESCRIPTION(('Open CASCADE Model'),'2;1');
FILE_NAME('Open CASCADE Shape Model','2026-07-31T02:07:51',('Author'),(
    'Open CASCADE'),'Open CASCADE STEP processor 7.9','Open CASCADE 7.9'
  ,'Unknown');
FILE_SCHEMA(('AUTOMOTIVE_DESIGN { 1 0 10303 214 1 1 1 1 }'));
ENDSEC;
DATA;
#1 = APPLICATION_PROTOCOL_DEFINITION('international standard',
  'automotive_design',2000,#2);
#2 = APPLICATION_CONTEXT(
  'core data for automotive mechanical design processes');
#3 = SHAPE_DEFINITION_REPRESENTATION(#4,#10);
#4 = PRODUCT_DEFINITION_SHAPE('','',#5);
#5 = PRODUCT_DEFINITION('design','',#6,#9);
#6 = PRODUCT_DEFINITION_FORMATION('','',#7);
#7 = PRODUCT('ROUND_V3_NONPHYSICAL_SCREEN_UI',
  'ROUND_V3_NONPHYSICAL_SCREEN_UI','',(#8));
#8 = PRODUCT_CONTEXT('',#2,'mechanical');
#9 = PRODUCT_DEFINITION_CONTEXT('part definition',#2,'design');
#10 = SHAPE_REPRESENTATION('',(#11,#15,#19),#23);
#11 = AXIS2_PLACEMENT_3D('',#12,#13,#14);
#12 = CARTESIAN_POINT('',(0.,0.,0.));
#13 = DIRECTION('',(0.,0.,1.));
#14 = DIRECTION('',(1.,0.,-0.));
#15 = AXIS2_PLACEMENT_3D('',#16,#17,#18);
#16 = CARTESIAN_POINT('',(-24.,-40.45,109.));
#17 = DIRECTION('',(0.,0.,1.));
#18 = DIRECTION('',(1.,0.,-0.));
#19 = AXIS2_PLACEMENT_3D('',#20,#21,#22);
#20 = CARTESIAN_POINT('',(24.,-40.45,109.));
#21 = DIRECTION('',(0.,0.,1.));
#22 = DIRECTION('',(1.,0.,-0.));
#23 = ( GEOMETRIC_REPRESENTATION_CONTEXT(3) 
GLOBAL_UNCERTAINTY_ASSIGNED_CONTEXT((#27)) GLOBAL_UNIT_ASSIGNED_CONTEXT(
(#24,#25,#26)) REPRESENTATION_CONTEXT('Context #1',
  '3D Context with UNIT and UNCERTAINTY') );
#24 = ( LENGTH_UNIT() NAMED_UNIT(*) SI_UNIT(.MILLI.,.METRE.) );
#25 = ( NAMED_UNIT(*) PLANE_ANGLE_UNIT() SI_UNIT($,.RADIAN.) );
#26 = ( NAMED_UNIT(*) SI_UNIT($,.STERADIAN.) SOLID_ANGLE_UNIT() );
#27 = UNCERTAINTY_MEASURE_WITH_UNIT(LENGTH_MEASURE(1.E-06),#24,
  'distance_accuracy_value','confusion accuracy');
#28 = PRODUCT_RELATED_PRODUCT_CATEGORY('part',$,(#7));
#29 = SHAPE_DEFINITION_REPRESENTATION(#30,#36);
#30 = PRODUCT_DEFINITION_SHAPE('','',#31);
#31 = PRODUCT_DEFINITION('design','',#32,#35);
#32 = PRODUCT_DEFINITION_FORMATION('','',#33);
#33 = PRODUCT('ROUND_V3_SCREEN_EYE_LEFT','ROUND_V3_SCREEN_EYE_LEFT','',(
    #34));
#34 = PRODUCT_CONTEXT('',#2,'mechanical');
#35 = PRODUCT_DEFINITION_CONTEXT('part definition',#2,'design');
#36 = ADVANCED_BREP_SHAPE_REPRESENTATION('',(#11,#37),#80);
#37 = MANIFOLD_SOLID_BREP('',#38);
#38 = CLOSED_SHELL('',(#39));
#39 = ADVANCED_FACE('',(#40),#44,.T.);
#40 = FACE_BOUND('',#41,.T.);
#41 = VERTEX_LOOP('',#42);
#42 = VERTEX_POINT('',#43);
#43 = CARTESIAN_POINT('',(4.898587196589E-16,-8.24867880464E-33,-11.5));
#44 = ( BOUNDED_SURFACE() B_SPLINE_SURFACE(2,2,(
    (#45,#46,#47,#48,#49)
    ,(#50,#51,#52,#53,#54)
    ,(#55,#56,#57,#58,#59)
    ,(#60,#61,#62,#63,#64)
    ,(#65,#66,#67,#68,#69)
    ,(#70,#71,#72,#73,#74)
    ,(#75,#76,#77,#78,#79
)),.UNSPECIFIED.,.T.,.F.,.F.) B_SPLINE_SURFACE_WITH_KNOTS((1,2,2,2,2,1),
  (3,2,3),(-2.094395102393,0.,2.094395102393,4.188790204786,
    6.28318530718,8.377580409573),(-1.570796326795,0.,1.570796326795),
.UNSPECIFIED.) GEOMETRIC_REPRESENTATION_ITEM() RATIONAL_B_SPLINE_SURFACE
((
    (1.,0.707106781187,1.,0.707106781187,1.)
    ,(0.5,0.353553390593,0.5,0.353553390593,0.5)
    ,(1.,0.707106781187,1.,0.707106781187,1.)
    ,(0.5,0.353553390593,0.5,0.353553390593,0.5)
    ,(1.,0.707106781187,1.,0.707106781187,1.)
    ,(0.5,0.353553390593,0.5,0.353553390593,0.5)
,(1.,0.707106781187,1.,0.707106781187,1.
))) REPRESENTATION_ITEM('') SURFACE() );
#45 = CARTESIAN_POINT('',(4.898587196589E-16,0.,-11.5));
#46 = CARTESIAN_POINT('',(8.,0.,-11.5));
#47 = CARTESIAN_POINT('',(8.,0.,0.));
#48 = CARTESIAN_POINT('',(8.,0.,11.5));
#49 = CARTESIAN_POINT('',(4.898587196589E-16,0.,11.5));
#50 = CARTESIAN_POINT('',(4.898587196589E-16,5.833163812987E-17,-11.5));
#51 = CARTESIAN_POINT('',(8.,0.952627944163,-11.5));
#52 = CARTESIAN_POINT('',(8.,0.952627944163,0.));
#53 = CARTESIAN_POINT('',(8.,0.952627944163,11.5));
#54 = CARTESIAN_POINT('',(4.898587196589E-16,5.833163812987E-17,11.5));
#55 = CARTESIAN_POINT('',(-2.449293598295E-16,2.916581906493E-17,-11.5)
  );
#56 = CARTESIAN_POINT('',(-4.,0.476313972081,-11.5));
#57 = CARTESIAN_POINT('',(-4.,0.476313972081,0.));
#58 = CARTESIAN_POINT('',(-4.,0.476313972081,11.5));
#59 = CARTESIAN_POINT('',(-2.449293598295E-16,2.916581906493E-17,11.5));
#60 = CARTESIAN_POINT('',(-9.797174393179E-16,8.24867880464E-33,-11.5));
#61 = CARTESIAN_POINT('',(-16.,1.347111479062E-16,-11.5));
#62 = CARTESIAN_POINT('',(-16.,1.347111479062E-16,0.));
#63 = CARTESIAN_POINT('',(-16.,1.347111479062E-16,11.5));
#64 = CARTESIAN_POINT('',(-9.797174393179E-16,8.24867880464E-33,11.5));
#65 = CARTESIAN_POINT('',(-2.449293598295E-16,-2.916581906493E-17,-11.5)
  );
#66 = CARTESIAN_POINT('',(-4.,-0.476313972081,-11.5));
#67 = CARTESIAN_POINT('',(-4.,-0.476313972081,0.));
#68 = CARTESIAN_POINT('',(-4.,-0.476313972081,11.5));
#69 = CARTESIAN_POINT('',(-2.449293598295E-16,-2.916581906493E-17,11.5)
  );
#70 = CARTESIAN_POINT('',(4.898587196589E-16,-5.833163812987E-17,-11.5)
  );
#71 = CARTESIAN_POINT('',(8.,-0.952627944163,-11.5));
#72 = CARTESIAN_POINT('',(8.,-0.952627944163,0.));
#73 = CARTESIAN_POINT('',(8.,-0.952627944163,11.5));
#74 = CARTESIAN_POINT('',(4.898587196589E-16,-5.833163812987E-17,11.5));
#75 = CARTESIAN_POINT('',(4.898587196589E-16,0.,-11.5));
#76 = CARTESIAN_POINT('',(8.,0.,-11.5));
#77 = CARTESIAN_POINT('',(8.,0.,0.));
#78 = CARTESIAN_POINT('',(8.,0.,11.5));
#79 = CARTESIAN_POINT('',(4.898587196589E-16,0.,11.5));
#80 = ( GEOMETRIC_REPRESENTATION_CONTEXT(3) 
GLOBAL_UNCERTAINTY_ASSIGNED_CONTEXT((#84)) GLOBAL_UNIT_ASSIGNED_CONTEXT(
(#81,#82,#83)) REPRESENTATION_CONTEXT('Context #1',
  '3D Context with UNIT and UNCERTAINTY') );
#81 = ( LENGTH_UNIT() NAMED_UNIT(*) SI_UNIT(.MILLI.,.METRE.) );
#82 = ( NAMED_UNIT(*) PLANE_ANGLE_UNIT() SI_UNIT($,.RADIAN.) );
#83 = ( NAMED_UNIT(*) SI_UNIT($,.STERADIAN.) SOLID_ANGLE_UNIT() );
#84 = UNCERTAINTY_MEASURE_WITH_UNIT(LENGTH_MEASURE(1.E-06),#81,
  'distance_accuracy_value','confusion accuracy');
#85 = CONTEXT_DEPENDENT_SHAPE_REPRESENTATION(#86,#88);
#86 = ( REPRESENTATION_RELATIONSHIP('','',#36,#10) 
REPRESENTATION_RELATIONSHIP_WITH_TRANSFORMATION(#87) 
SHAPE_REPRESENTATION_RELATIONSHIP() );
#87 = ITEM_DEFINED_TRANSFORMATION('','',#11,#15);
#88 = PRODUCT_DEFINITION_SHAPE('Placement','Placement of an item',#89);
#89 = NEXT_ASSEMBLY_USAGE_OCCURRENCE('1','ROUND_V3_SCREEN_EYE_LEFT','',
  #5,#31,$);
#90 = PRODUCT_RELATED_PRODUCT_CATEGORY('part',$,(#33));
#91 = SHAPE_DEFINITION_REPRESENTATION(#92,#98);
#92 = PRODUCT_DEFINITION_SHAPE('','',#93);
#93 = PRODUCT_DEFINITION('design','',#94,#97);
#94 = PRODUCT_DEFINITION_FORMATION('','',#95);
#95 = PRODUCT('ROUND_V3_SCREEN_EYE_RIGHT','ROUND_V3_SCREEN_EYE_RIGHT',''
  ,(#96));
#96 = PRODUCT_CONTEXT('',#2,'mechanical');
#97 = PRODUCT_DEFINITION_CONTEXT('part definition',#2,'design');
#98 = ADVANCED_BREP_SHAPE_REPRESENTATION('',(#11,#99),#142);
#99 = MANIFOLD_SOLID_BREP('',#100);
#100 = CLOSED_SHELL('',(#101));
#101 = ADVANCED_FACE('',(#102),#106,.T.);
#102 = FACE_BOUND('',#103,.T.);
#103 = VERTEX_LOOP('',#104);
#104 = VERTEX_POINT('',#105);
#105 = CARTESIAN_POINT('',(4.898587196589E-16,-8.24867880464E-33,-11.5)
  );
#106 = ( BOUNDED_SURFACE() B_SPLINE_SURFACE(2,2,(
    (#107,#108,#109,#110,#111)
    ,(#112,#113,#114,#115,#116)
    ,(#117,#118,#119,#120,#121)
    ,(#122,#123,#124,#125,#126)
    ,(#127,#128,#129,#130,#131)
    ,(#132,#133,#134,#135,#136)
    ,(#137,#138,#139,#140,#141
)),.UNSPECIFIED.,.T.,.F.,.F.) B_SPLINE_SURFACE_WITH_KNOTS((1,2,2,2,2,1),
  (3,2,3),(-2.094395102393,0.,2.094395102393,4.188790204786,
    6.28318530718,8.377580409573),(-1.570796326795,0.,1.570796326795),
.UNSPECIFIED.) GEOMETRIC_REPRESENTATION_ITEM() RATIONAL_B_SPLINE_SURFACE
((
    (1.,0.707106781187,1.,0.707106781187,1.)
    ,(0.5,0.353553390593,0.5,0.353553390593,0.5)
    ,(1.,0.707106781187,1.,0.707106781187,1.)
    ,(0.5,0.353553390593,0.5,0.353553390593,0.5)
    ,(1.,0.707106781187,1.,0.707106781187,1.)
    ,(0.5,0.353553390593,0.5,0.353553390593,0.5)
,(1.,0.707106781187,1.,0.707106781187,1.
))) REPRESENTATION_ITEM('') SURFACE() );
#107 = CARTESIAN_POINT('',(4.898587196589E-16,0.,-11.5));
#108 = CARTESIAN_POINT('',(8.,0.,-11.5));
#109 = CARTESIAN_POINT('',(8.,0.,0.));
#110 = CARTESIAN_POINT('',(8.,0.,11.5));
#111 = CARTESIAN_POINT('',(4.898587196589E-16,0.,11.5));
#112 = CARTESIAN_POINT('',(4.898587196589E-16,5.833163812987E-17,-11.5)
  );
#113 = CARTESIAN_POINT('',(8.,0.952627944163,-11.5));
#114 = CARTESIAN_POINT('',(8.,0.952627944163,0.));
#115 = CARTESIAN_POINT('',(8.,0.952627944163,11.5));
#116 = CARTESIAN_POINT('',(4.898587196589E-16,5.833163812987E-17,11.5));
#117 = CARTESIAN_POINT('',(-2.449293598295E-16,2.916581906493E-17,-11.5)
  );
#118 = CARTESIAN_POINT('',(-4.,0.476313972081,-11.5));
#119 = CARTESIAN_POINT('',(-4.,0.476313972081,0.));
#120 = CARTESIAN_POINT('',(-4.,0.476313972081,11.5));
#121 = CARTESIAN_POINT('',(-2.449293598295E-16,2.916581906493E-17,11.5)
  );
#122 = CARTESIAN_POINT('',(-9.797174393179E-16,8.24867880464E-33,-11.5)
  );
#123 = CARTESIAN_POINT('',(-16.,1.347111479062E-16,-11.5));
#124 = CARTESIAN_POINT('',(-16.,1.347111479062E-16,0.));
#125 = CARTESIAN_POINT('',(-16.,1.347111479062E-16,11.5));
#126 = CARTESIAN_POINT('',(-9.797174393179E-16,8.24867880464E-33,11.5));
#127 = CARTESIAN_POINT('',(-2.449293598295E-16,-2.916581906493E-17,-11.5
    ));
#128 = CARTESIAN_POINT('',(-4.,-0.476313972081,-11.5));
#129 = CARTESIAN_POINT('',(-4.,-0.476313972081,0.));
#130 = CARTESIAN_POINT('',(-4.,-0.476313972081,11.5));
#131 = CARTESIAN_POINT('',(-2.449293598295E-16,-2.916581906493E-17,11.5)
  );
#132 = CARTESIAN_POINT('',(4.898587196589E-16,-5.833163812987E-17,-11.5)
  );
#133 = CARTESIAN_POINT('',(8.,-0.952627944163,-11.5));
#134 = CARTESIAN_POINT('',(8.,-0.952627944163,0.));
#135 = CARTESIAN_POINT('',(8.,-0.952627944163,11.5));
#136 = CARTESIAN_POINT('',(4.898587196589E-16,-5.833163812987E-17,11.5)
  );
#137 = CARTESIAN_POINT('',(4.898587196589E-16,0.,-11.5));
#138 = CARTESIAN_POINT('',(8.,0.,-11.5));
#139 = CARTESIAN_POINT('',(8.,0.,0.));
#140 = CARTESIAN_POINT('',(8.,0.,11.5));
#141 = CARTESIAN_POINT('',(4.898587196589E-16,0.,11.5));
#142 = ( GEOMETRIC_REPRESENTATION_CONTEXT(3) 
GLOBAL_UNCERTAINTY_ASSIGNED_CONTEXT((#146)) GLOBAL_UNIT_ASSIGNED_CONTEXT
((#143,#144,#145)) REPRESENTATION_CONTEXT('Context #1',
  '3D Context with UNIT and UNCERTAINTY') );
#143 = ( LENGTH_UNIT() NAMED_UNIT(*) SI_UNIT(.MILLI.,.METRE.) );
#144 = ( NAMED_UNIT(*) PLANE_ANGLE_UNIT() SI_UNIT($,.RADIAN.) );
#145 = ( NAMED_UNIT(*) SI_UNIT($,.STERADIAN.) SOLID_ANGLE_UNIT() );
#146 = UNCERTAINTY_MEASURE_WITH_UNIT(LENGTH_MEASURE(1.E-06),#143,
  'distance_accuracy_value','confusion accuracy');
#147 = CONTEXT_DEPENDENT_SHAPE_REPRESENTATION(#148,#150);
#148 = ( REPRESENTATION_RELATIONSHIP('','',#98,#10) 
REPRESENTATION_RELATIONSHIP_WITH_TRANSFORMATION(#149) 
SHAPE_REPRESENTATION_RELATIONSHIP() );
#149 = ITEM_DEFINED_TRANSFORMATION('','',#11,#19);
#150 = PRODUCT_DEFINITION_SHAPE('Placement','Placement of an item',#151
  );
#151 = NEXT_ASSEMBLY_USAGE_OCCURRENCE('2','ROUND_V3_SCREEN_EYE_RIGHT',''
  ,#5,#93,$);
#152 = PRODUCT_RELATED_PRODUCT_CATEGORY('part',$,(#95));
#153 = SHAPE_DEFINITION_REPRESENTATION(#88,#154);
#154 = SHAPE_REPRESENTATION('',(#15),#80);
#155 = SHAPE_DEFINITION_REPRESENTATION(#150,#156);
#156 = SHAPE_REPRESENTATION('',(#19),#142);
#157 = SHAPE_DEFINITION_REPRESENTATION(#88,#158);
#158 = SHAPE_REPRESENTATION('',(#15),#80);
#159 = SHAPE_DEFINITION_REPRESENTATION(#150,#160);
#160 = SHAPE_REPRESENTATION('',(#19),#142);
#161 = MECHANICAL_DESIGN_GEOMETRIC_PRESENTATION_REPRESENTATION('',(#162)
  ,#142);
#162 = STYLED_ITEM('color',(#163),#99);
#163 = PRESENTATION_STYLE_ASSIGNMENT((#164));
#164 = SURFACE_STYLE_USAGE(.BOTH.,#165);
#165 = SURFACE_SIDE_STYLE('',(#166));
#166 = SURFACE_STYLE_FILL_AREA(#167);
#167 = FILL_AREA_STYLE('',(#168));
#168 = FILL_AREA_STYLE_COLOUR('',#169);
#169 = COLOUR_RGB('',0.321568621761,0.839215683236,1.);
#170 = MECHANICAL_DESIGN_GEOMETRIC_PRESENTATION_REPRESENTATION('',(#171)
  ,#80);
#171 = STYLED_ITEM('color',(#172),#37);
#172 = PRESENTATION_STYLE_ASSIGNMENT((#173));
#173 = SURFACE_STYLE_USAGE(.BOTH.,#174);
#174 = SURFACE_SIDE_STYLE('',(#175));
#175 = SURFACE_STYLE_FILL_AREA(#176);
#176 = FILL_AREA_STYLE('',(#177));
#177 = FILL_AREA_STYLE_COLOUR('',#169);

#178=DESCRIPTIVE_REPRESENTATION_ITEM('cadpy:generator','cadpy');
#179=REPRESENTATION('cadpy:generator',(#178),#23);
#180=PROPERTY_DEFINITION('cadpy metadata','cadpy:generator',#5);
#181=PROPERTY_DEFINITION_REPRESENTATION(#180,#179);
#182=DESCRIPTIVE_REPRESENTATION_ITEM('cadpy:entryKind','assembly');
#183=REPRESENTATION('cadpy:entryKind',(#182),#23);
#184=PROPERTY_DEFINITION('cadpy metadata','cadpy:entryKind',#5);
#185=PROPERTY_DEFINITION_REPRESENTATION(#184,#183);
#186=DESCRIPTIVE_REPRESENTATION_ITEM('cadpy:sourcePath','../../../../cad/round_v1/gen_round_v3_face_graphics.py');
#187=REPRESENTATION('cadpy:sourcePath',(#186),#23);
#188=PROPERTY_DEFINITION('cadpy metadata','cadpy:sourcePath',#5);
#189=PROPERTY_DEFINITION_REPRESENTATION(#188,#187);
#190=DESCRIPTIVE_REPRESENTATION_ITEM('cadpy:sourceHash','be768f2eaead29053f5d69c9675f656e8e729861da774034fe33ad75eb6aa6f9');
#191=REPRESENTATION('cadpy:sourceHash',(#190),#23);
#192=PROPERTY_DEFINITION('cadpy metadata','cadpy:sourceHash',#5);
#193=PROPERTY_DEFINITION_REPRESENTATION(#192,#191);
ENDSEC;
END-ISO-10303-21;
