ISO-10303-21;
HEADER;
FILE_DESCRIPTION(('Open CASCADE Model'),'2;1');
FILE_NAME('PHYSICAL_MOUNT_V2_MINIMAL_ROUNDED_CHEST_FRONT_PANEL',
  '2026-07-31T22:40:57',('Author'),('Open CASCADE'),
  'Open CASCADE STEP processor 7.9','build123d','Unknown');
FILE_SCHEMA(('AUTOMOTIVE_DESIGN { 1 0 10303 214 1 1 1 1 }'));
ENDSEC;
DATA;
#1 = APPLICATION_PROTOCOL_DEFINITION('international standard',
  'automotive_design',2000,#2);
#2 = APPLICATION_CONTEXT(
  'core data for automotive mechanical design processes');
#3 = SHAPE_DEFINITION_REPRESENTATION(#4,#10);
#4 = PRODUCT_DEFINITION_SHAPE('','',#5);
#5 = PRODUCT_DEFINITION('design','',#6,#9);
#6 = PRODUCT_DEFINITION_FORMATION('','',#7);
#7 = PRODUCT('PHYSICAL_MOUNT_V2_MINIMAL_ROUNDED_CHEST_FRONT_PANEL',
  'PHYSICAL_MOUNT_V2_MINIMAL_ROUNDED_CHEST_FRONT_PANEL','',(#8));
#8 = PRODUCT_CONTEXT('',#2,'mechanical');
#9 = PRODUCT_DEFINITION_CONTEXT('part definition',#2,'design');
#10 = ADVANCED_BREP_SHAPE_REPRESENTATION('',(#11,#15),#1393);
#11 = AXIS2_PLACEMENT_3D('',#12,#13,#14);
#12 = CARTESIAN_POINT('',(0.,0.,0.));
#13 = DIRECTION('',(0.,0.,1.));
#14 = DIRECTION('',(1.,0.,-0.));
#15 = MANIFOLD_SOLID_BREP('',#16);
#16 = CLOSED_SHELL('',(#17,#137,#312,#402,#811,#954,#1024,#1089,#1183,
    #1231,#1299,#1306,#1333,#1340,#1386));
#17 = ADVANCED_FACE('',(#18),#32,.T.);
#18 = FACE_BOUND('',#19,.T.);
#19 = EDGE_LOOP('',(#20,#53,#82,#110));
#20 = ORIENTED_EDGE('',*,*,#21,.F.);
#21 = EDGE_CURVE('',#22,#24,#26,.T.);
#22 = VERTEX_POINT('',#23);
#23 = CARTESIAN_POINT('',(-70.58122222713,-33.225,-48.));
#24 = VERTEX_POINT('',#25);
#25 = CARTESIAN_POINT('',(-70.58122222713,-33.225,20.));
#26 = SURFACE_CURVE('',#27,(#31,#42),.PCURVE_S1.);
#27 = LINE('',#28,#29);
#28 = CARTESIAN_POINT('',(-70.58122222713,-33.225,-70.));
#29 = VECTOR('',#30,1.);
#30 = DIRECTION('',(0.,0.,1.));
#31 = PCURVE('',#32,#37);
#32 = CYLINDRICAL_SURFACE('',#33,22.);
#33 = AXIS2_PLACEMENT_3D('',#34,#35,#36);
#34 = CARTESIAN_POINT('',(-53.,-20.,-70.));
#35 = DIRECTION('',(0.,0.,1.));
#36 = DIRECTION('',(-1.,-0.,0.));
#37 = DEFINITIONAL_REPRESENTATION('',(#38),#41);
#38 = B_SPLINE_CURVE_WITH_KNOTS('',1,(#39,#40),.UNSPECIFIED.,.F.,.F.,(2,
    2),(21.9999994,90.0000006),.PIECEWISE_BEZIER_KNOTS.);
#39 = CARTESIAN_POINT('',(0.644922321259,21.9999994));
#40 = CARTESIAN_POINT('',(0.644922321259,90.0000006));
#41 = ( GEOMETRIC_REPRESENTATION_CONTEXT(2) 
PARAMETRIC_REPRESENTATION_CONTEXT() REPRESENTATION_CONTEXT('2D SPACE',''
  ) );
#42 = PCURVE('',#43,#48);
#43 = PLANE('',#44);
#44 = AXIS2_PLACEMENT_3D('',#45,#46,#47);
#45 = CARTESIAN_POINT('',(-250.,-33.225,-250.));
#46 = DIRECTION('',(-0.,1.,0.));
#47 = DIRECTION('',(0.,0.,1.));
#48 = DEFINITIONAL_REPRESENTATION('',(#49),#52);
#49 = B_SPLINE_CURVE_WITH_KNOTS('',1,(#50,#51),.UNSPECIFIED.,.F.,.F.,(2,
    2),(21.9999994,90.0000006),.PIECEWISE_BEZIER_KNOTS.);
#50 = CARTESIAN_POINT('',(201.9999994,179.41877777286));
#51 = CARTESIAN_POINT('',(270.0000006,179.41877777286));
#52 = ( GEOMETRIC_REPRESENTATION_CONTEXT(2) 
PARAMETRIC_REPRESENTATION_CONTEXT() REPRESENTATION_CONTEXT('2D SPACE',''
  ) );
#53 = ORIENTED_EDGE('',*,*,#54,.T.);
#54 = EDGE_CURVE('',#22,#55,#57,.T.);
#55 = VERTEX_POINT('',#56);
#56 = CARTESIAN_POINT('',(-53.,-42.,-48.));
#57 = SURFACE_CURVE('',#58,(#63,#70),.PCURVE_S1.);
#58 = CIRCLE('',#59,22.);
#59 = AXIS2_PLACEMENT_3D('',#60,#61,#62);
#60 = CARTESIAN_POINT('',(-53.,-20.,-48.));
#61 = DIRECTION('',(0.,0.,1.));
#62 = DIRECTION('',(-1.,0.,0.));
#63 = PCURVE('',#32,#64);
#64 = DEFINITIONAL_REPRESENTATION('',(#65),#69);
#65 = LINE('',#66,#67);
#66 = CARTESIAN_POINT('',(0.,22.));
#67 = VECTOR('',#68,1.);
#68 = DIRECTION('',(1.,0.));
#69 = ( GEOMETRIC_REPRESENTATION_CONTEXT(2) 
PARAMETRIC_REPRESENTATION_CONTEXT() REPRESENTATION_CONTEXT('2D SPACE',''
  ) );
#70 = PCURVE('',#71,#76);
#71 = SPHERICAL_SURFACE('',#72,22.);
#72 = AXIS2_PLACEMENT_3D('',#73,#74,#75);
#73 = CARTESIAN_POINT('',(-53.,-20.,-48.));
#74 = DIRECTION('',(0.,0.,1.));
#75 = DIRECTION('',(-1.,0.,0.));
#76 = DEFINITIONAL_REPRESENTATION('',(#77),#81);
#77 = LINE('',#78,#79);
#78 = CARTESIAN_POINT('',(0.,0.));
#79 = VECTOR('',#80,1.);
#80 = DIRECTION('',(1.,0.));
#81 = ( GEOMETRIC_REPRESENTATION_CONTEXT(2) 
PARAMETRIC_REPRESENTATION_CONTEXT() REPRESENTATION_CONTEXT('2D SPACE',''
  ) );
#82 = ORIENTED_EDGE('',*,*,#83,.T.);
#83 = EDGE_CURVE('',#55,#84,#86,.T.);
#84 = VERTEX_POINT('',#85);
#85 = CARTESIAN_POINT('',(-53.,-42.,20.));
#86 = SURFACE_CURVE('',#87,(#91,#98),.PCURVE_S1.);
#87 = LINE('',#88,#89);
#88 = CARTESIAN_POINT('',(-53.,-42.,-70.));
#89 = VECTOR('',#90,1.);
#90 = DIRECTION('',(0.,0.,1.));
#91 = PCURVE('',#32,#92);
#92 = DEFINITIONAL_REPRESENTATION('',(#93),#97);
#93 = LINE('',#94,#95);
#94 = CARTESIAN_POINT('',(1.570796326795,0.));
#95 = VECTOR('',#96,1.);
#96 = DIRECTION('',(0.,1.));
#97 = ( GEOMETRIC_REPRESENTATION_CONTEXT(2) 
PARAMETRIC_REPRESENTATION_CONTEXT() REPRESENTATION_CONTEXT('2D SPACE',''
  ) );
#98 = PCURVE('',#99,#104);
#99 = PLANE('',#100);
#100 = AXIS2_PLACEMENT_3D('',#101,#102,#103);
#101 = CARTESIAN_POINT('',(-75.,-42.,-70.));
#102 = DIRECTION('',(-0.,1.,0.));
#103 = DIRECTION('',(0.,0.,1.));
#104 = DEFINITIONAL_REPRESENTATION('',(#105),#109);
#105 = LINE('',#106,#107);
#106 = CARTESIAN_POINT('',(0.,22.));
#107 = VECTOR('',#108,1.);
#108 = DIRECTION('',(1.,0.));
#109 = ( GEOMETRIC_REPRESENTATION_CONTEXT(2) 
PARAMETRIC_REPRESENTATION_CONTEXT() REPRESENTATION_CONTEXT('2D SPACE',''
  ) );
#110 = ORIENTED_EDGE('',*,*,#111,.F.);
#111 = EDGE_CURVE('',#24,#84,#112,.T.);
#112 = SURFACE_CURVE('',#113,(#118,#125),.PCURVE_S1.);
#113 = CIRCLE('',#114,22.);
#114 = AXIS2_PLACEMENT_3D('',#115,#116,#117);
#115 = CARTESIAN_POINT('',(-53.,-20.,20.));
#116 = DIRECTION('',(0.,0.,1.));
#117 = DIRECTION('',(-1.,0.,0.));
#118 = PCURVE('',#32,#119);
#119 = DEFINITIONAL_REPRESENTATION('',(#120),#124);
#120 = LINE('',#121,#122);
#121 = CARTESIAN_POINT('',(0.,90.));
#122 = VECTOR('',#123,1.);
#123 = DIRECTION('',(1.,0.));
#124 = ( GEOMETRIC_REPRESENTATION_CONTEXT(2) 
PARAMETRIC_REPRESENTATION_CONTEXT() REPRESENTATION_CONTEXT('2D SPACE',''
  ) );
#125 = PCURVE('',#126,#131);
#126 = SPHERICAL_SURFACE('',#127,22.);
#127 = AXIS2_PLACEMENT_3D('',#128,#129,#130);
#128 = CARTESIAN_POINT('',(-53.,-20.,20.));
#129 = DIRECTION('',(-0.,-0.,-1.));
#130 = DIRECTION('',(-1.,0.,0.));
#131 = DEFINITIONAL_REPRESENTATION('',(#132),#136);
#132 = LINE('',#133,#134);
#133 = CARTESIAN_POINT('',(-0.,0.));
#134 = VECTOR('',#135,1.);
#135 = DIRECTION('',(-1.,0.));
#136 = ( GEOMETRIC_REPRESENTATION_CONTEXT(2) 
PARAMETRIC_REPRESENTATION_CONTEXT() REPRESENTATION_CONTEXT('2D SPACE',''
  ) );
#137 = ADVANCED_FACE('',(#138),#71,.T.);
#138 = FACE_BOUND('',#139,.T.);
#139 = EDGE_LOOP('',(#140,#181,#230,#286,#311));
#140 = ORIENTED_EDGE('',*,*,#141,.F.);
#141 = EDGE_CURVE('',#142,#22,#144,.T.);
#142 = VERTEX_POINT('',#143);
#143 = CARTESIAN_POINT('',(-69.,-33.225,-55.28693179603));
#144 = SURFACE_CURVE('',#145,(#150,#174),.PCURVE_S1.);
#145 = CIRCLE('',#146,17.581222227138);
#146 = AXIS2_PLACEMENT_3D('',#147,#148,#149);
#147 = CARTESIAN_POINT('',(-53.,-33.225,-48.));
#148 = DIRECTION('',(-0.,1.,0.));
#149 = DIRECTION('',(0.,0.,1.));
#150 = PCURVE('',#71,#151);
#151 = DEFINITIONAL_REPRESENTATION('',(#152),#173);
#152 = B_SPLINE_CURVE_WITH_KNOTS('',7,(#153,#154,#155,#156,#157,#158,
    #159,#160,#161,#162,#163,#164,#165,#166,#167,#168,#169,#170,#171,
    #172),.UNSPECIFIED.,.F.,.F.,(8,6,6,8),(3.555941329424,3.845053242164
    ,4.278721111274,4.712388980385),.UNSPECIFIED.);
#153 = CARTESIAN_POINT('',(1.079382655076,-0.820551082808));
#154 = CARTESIAN_POINT('',(1.040313772355,-0.801061935335));
#155 = CARTESIAN_POINT('',(1.003978988321,-0.779912957689));
#156 = CARTESIAN_POINT('',(0.970369338202,-0.757292427269));
#157 = CARTESIAN_POINT('',(0.939377875314,-0.733377888469));
#158 = CARTESIAN_POINT('',(0.910853839135,-0.708327440893));
#159 = CARTESIAN_POINT('',(0.884635891433,-0.682277727134));
#160 = CARTESIAN_POINT('',(0.824457213907,-0.614954959609));
#161 = CARTESIAN_POINT('',(0.793179673012,-0.572582534048));
#162 = CARTESIAN_POINT('',(0.766192851193,-0.528635136248));
#163 = CARTESIAN_POINT('',(0.742971806839,-0.483425953024));
#164 = CARTESIAN_POINT('',(0.723101479107,-0.437198731274));
#165 = CARTESIAN_POINT('',(0.706246698249,-0.390153219606));
#166 = CARTESIAN_POINT('',(0.678055904626,-0.294761795374));
#167 = CARTESIAN_POINT('',(0.666719863406,-0.246415925232));
#168 = CARTESIAN_POINT('',(0.657886290929,-0.197587956055));
#169 = CARTESIAN_POINT('',(0.651375740186,-0.148415407637));
#170 = CARTESIAN_POINT('',(0.647073416766,-9.901830093627E-02));
#171 = CARTESIAN_POINT('',(0.644922321259,-4.950916350389E-02));
#172 = CARTESIAN_POINT('',(0.644922321259,0.));
#173 = ( GEOMETRIC_REPRESENTATION_CONTEXT(2) 
PARAMETRIC_REPRESENTATION_CONTEXT() REPRESENTATION_CONTEXT('2D SPACE',''
  ) );
#174 = PCURVE('',#43,#175);
#175 = DEFINITIONAL_REPRESENTATION('',(#176),#180);
#176 = CIRCLE('',#177,17.581222227138);
#177 = AXIS2_PLACEMENT_2D('',#178,#179);
#178 = CARTESIAN_POINT('',(202.,197.));
#179 = DIRECTION('',(1.,0.));
#180 = ( GEOMETRIC_REPRESENTATION_CONTEXT(2) 
PARAMETRIC_REPRESENTATION_CONTEXT() REPRESENTATION_CONTEXT('2D SPACE',''
  ) );
#181 = ORIENTED_EDGE('',*,*,#182,.F.);
#182 = EDGE_CURVE('',#183,#142,#185,.T.);
#183 = VERTEX_POINT('',#184);
#184 = CARTESIAN_POINT('',(-69.,-35.,-49.73205080756));
#185 = SURFACE_CURVE('',#186,(#191,#218),.PCURVE_S1.);
#186 = CIRCLE('',#187,15.099668870541);
#187 = AXIS2_PLACEMENT_3D('',#188,#189,#190);
#188 = CARTESIAN_POINT('',(-69.,-20.,-48.));
#189 = DIRECTION('',(1.,0.,-0.));
#190 = DIRECTION('',(0.,0.,1.));
#191 = PCURVE('',#71,#192);
#192 = DEFINITIONAL_REPRESENTATION('',(#193),#217);
#193 = B_SPLINE_CURVE_WITH_KNOTS('',8,(#194,#195,#196,#197,#198,#199,
    #200,#201,#202,#203,#204,#205,#206,#207,#208,#209,#210,#211,#212,
    #213,#214,#215,#216),.UNSPECIFIED.,.F.,.F.,(9,7,7,9),(1.685757247296
    ,2.413674950443,2.777633802016,3.14159265359),.UNSPECIFIED.);
#194 = CARTESIAN_POINT('',(0.753151280962,-7.881114207211E-02));
#195 = CARTESIAN_POINT('',(0.747908909047,-0.141042749025));
#196 = CARTESIAN_POINT('',(0.737886539608,-0.20287667558));
#197 = CARTESIAN_POINT('',(0.72296405391,-0.263887045705));
#198 = CARTESIAN_POINT('',(0.702869095131,-0.323626334693));
#199 = CARTESIAN_POINT('',(0.677179400885,-0.381584701388));
#200 = CARTESIAN_POINT('',(0.645331819001,-0.43716170254));
#201 = CARTESIAN_POINT('',(0.606646853494,-0.489594960332));
#202 = CARTESIAN_POINT('',(0.537676636626,-0.562170760061));
#203 = CARTESIAN_POINT('',(0.512862781458,-0.585350355839));
#204 = CARTESIAN_POINT('',(0.486167728205,-0.60740440877));
#205 = CARTESIAN_POINT('',(0.457548322105,-0.628210932464));
#206 = CARTESIAN_POINT('',(0.426984228794,-0.647639623112));
#207 = CARTESIAN_POINT('',(0.394494300611,-0.665554527311));
#208 = CARTESIAN_POINT('',(0.36015306518,-0.681819578036));
#209 = CARTESIAN_POINT('',(0.288046239196,-0.710795747209));
#210 = CARTESIAN_POINT('',(0.250280563107,-0.72350685942));
#211 = CARTESIAN_POINT('',(0.210942040753,-0.734313849282));
#212 = CARTESIAN_POINT('',(0.170232476523,-0.743098376962));
#213 = CARTESIAN_POINT('',(0.12842811649,-0.749759330062));
#214 = CARTESIAN_POINT('',(8.586959204277E-02,-0.754224021424));
#215 = CARTESIAN_POINT('',(4.293482922862E-02,-0.756456384668));
#216 = CARTESIAN_POINT('',(2.22044604925E-16,-0.756456384668));
#217 = ( GEOMETRIC_REPRESENTATION_CONTEXT(2) 
PARAMETRIC_REPRESENTATION_CONTEXT() REPRESENTATION_CONTEXT('2D SPACE',''
  ) );
#218 = PCURVE('',#219,#224);
#219 = PLANE('',#220);
#220 = AXIS2_PLACEMENT_3D('',#221,#222,#223);
#221 = CARTESIAN_POINT('',(-69.,-35.,-74.));
#222 = DIRECTION('',(1.,0.,-0.));
#223 = DIRECTION('',(0.,0.,1.));
#224 = DEFINITIONAL_REPRESENTATION('',(#225),#229);
#225 = CIRCLE('',#226,15.099668870541);
#226 = AXIS2_PLACEMENT_2D('',#227,#228);
#227 = CARTESIAN_POINT('',(26.,-15.));
#228 = DIRECTION('',(1.,0.));
#229 = ( GEOMETRIC_REPRESENTATION_CONTEXT(2) 
PARAMETRIC_REPRESENTATION_CONTEXT() REPRESENTATION_CONTEXT('2D SPACE',''
  ) );
#230 = ORIENTED_EDGE('',*,*,#231,.F.);
#231 = EDGE_CURVE('',#232,#183,#234,.T.);
#232 = VERTEX_POINT('',#233);
#233 = CARTESIAN_POINT('',(-53.,-35.,-64.09347693943));
#234 = SURFACE_CURVE('',#235,(#240,#274),.PCURVE_S1.);
#235 = CIRCLE('',#236,16.093476939431);
#236 = AXIS2_PLACEMENT_3D('',#237,#238,#239);
#237 = CARTESIAN_POINT('',(-53.,-35.,-48.));
#238 = DIRECTION('',(-0.,1.,0.));
#239 = DIRECTION('',(0.,0.,1.));
#240 = PCURVE('',#71,#241);
#241 = DEFINITIONAL_REPRESENTATION('',(#242),#273);
#242 = B_SPLINE_CURVE_WITH_KNOTS('',8,(#243,#244,#245,#246,#247,#248,
    #249,#250,#251,#252,#253,#254,#255,#256,#257,#258,#259,#260,#261,
    #262,#263,#264,#265,#266,#267,#268,#269,#270,#271,#272),
  .UNSPECIFIED.,.F.,.F.,(9,7,7,7,9),(3.14159265359,3.507333420262,
    3.781638995266,4.193097357773,4.604555720279),.UNSPECIFIED.);
#243 = CARTESIAN_POINT('',(1.570796326795,-0.820551082808));
#244 = CARTESIAN_POINT('',(1.521745988509,-0.820551082808));
#245 = CARTESIAN_POINT('',(1.472695654217,-0.817988262859));
#246 = CARTESIAN_POINT('',(1.424161170898,-0.812862663752));
#247 = CARTESIAN_POINT('',(1.37665849484,-0.805224997838));
#248 = CARTESIAN_POINT('',(1.330645192113,-0.795177550762));
#249 = CARTESIAN_POINT('',(1.28646101933,-0.782859697284));
#250 = CARTESIAN_POINT('',(1.24433650931,-0.768429294044));
#251 = CARTESIAN_POINT('',(1.174463593736,-0.739767637632));
#252 = CARTESIAN_POINT('',(1.145753943358,-0.726388495909));
#253 = CARTESIAN_POINT('',(1.118338239909,-0.711983308802));
#254 = CARTESIAN_POINT('',(1.092245101507,-0.696623794733));
#255 = CARTESIAN_POINT('',(1.067478412478,-0.680380867531));
#256 = CARTESIAN_POINT('',(1.044023798575,-0.663322748332));
#257 = CARTESIAN_POINT('',(1.021854854076,-0.645513964744));
#258 = CARTESIAN_POINT('',(0.969560487838,-0.599266600275));
#259 = CARTESIAN_POINT('',(0.940999072099,-0.569965306912));
#260 = CARTESIAN_POINT('',(0.915136661017,-0.53931536979));
#261 = CARTESIAN_POINT('',(0.891816747185,-0.507500326747));
#262 = CARTESIAN_POINT('',(0.870876206294,-0.474680742338));
#263 = CARTESIAN_POINT('',(0.852161176431,-0.440996689254));
#264 = CARTESIAN_POINT('',(0.835532709701,-0.406571888686));
#265 = CARTESIAN_POINT('',(0.806206851065,-0.336460925345));
#266 = CARTESIAN_POINT('',(0.793509505918,-0.300774771087));
#267 = CARTESIAN_POINT('',(0.782656457864,-0.264568056247));
#268 = CARTESIAN_POINT('',(0.773544989551,-0.227937427597));
#269 = CARTESIAN_POINT('',(0.76609205608,-0.190969343568));
#270 = CARTESIAN_POINT('',(0.76023463848,-0.153743001469));
#271 = CARTESIAN_POINT('',(0.755929347967,-0.116332914997));
#272 = CARTESIAN_POINT('',(0.753151280962,-7.881114207211E-02));
#273 = ( GEOMETRIC_REPRESENTATION_CONTEXT(2) 
PARAMETRIC_REPRESENTATION_CONTEXT() REPRESENTATION_CONTEXT('2D SPACE',''
  ) );
#274 = PCURVE('',#275,#280);
#275 = PLANE('',#276);
#276 = AXIS2_PLACEMENT_3D('',#277,#278,#279);
#277 = CARTESIAN_POINT('',(-69.,-35.,-74.));
#278 = DIRECTION('',(-0.,1.,0.));
#279 = DIRECTION('',(0.,0.,1.));
#280 = DEFINITIONAL_REPRESENTATION('',(#281),#285);
#281 = CIRCLE('',#282,16.093476939431);
#282 = AXIS2_PLACEMENT_2D('',#283,#284);
#283 = CARTESIAN_POINT('',(26.,16.));
#284 = DIRECTION('',(1.,0.));
#285 = ( GEOMETRIC_REPRESENTATION_CONTEXT(2) 
PARAMETRIC_REPRESENTATION_CONTEXT() REPRESENTATION_CONTEXT('2D SPACE',''
  ) );
#286 = ORIENTED_EDGE('',*,*,#287,.T.);
#287 = EDGE_CURVE('',#232,#55,#288,.T.);
#288 = SURFACE_CURVE('',#289,(#294,#300),.PCURVE_S1.);
#289 = CIRCLE('',#290,22.);
#290 = AXIS2_PLACEMENT_3D('',#291,#292,#293);
#291 = CARTESIAN_POINT('',(-53.,-20.,-48.));
#292 = DIRECTION('',(-1.,6.123233995737E-17,0.));
#293 = DIRECTION('',(-6.123233995737E-17,-1.,0.));
#294 = PCURVE('',#71,#295);
#295 = DEFINITIONAL_REPRESENTATION('',(#296),#299);
#296 = B_SPLINE_CURVE_WITH_KNOTS('',1,(#297,#298),.UNSPECIFIED.,.F.,.F.,
  (2,2),(4.712388980385,6.28318530718),.PIECEWISE_BEZIER_KNOTS.);
#297 = CARTESIAN_POINT('',(1.570796326795,-1.570796326795));
#298 = CARTESIAN_POINT('',(1.570796326795,0.));
#299 = ( GEOMETRIC_REPRESENTATION_CONTEXT(2) 
PARAMETRIC_REPRESENTATION_CONTEXT() REPRESENTATION_CONTEXT('2D SPACE',''
  ) );
#300 = PCURVE('',#301,#306);
#301 = CYLINDRICAL_SURFACE('',#302,22.);
#302 = AXIS2_PLACEMENT_3D('',#303,#304,#305);
#303 = CARTESIAN_POINT('',(-75.,-20.,-48.));
#304 = DIRECTION('',(1.,0.,-0.));
#305 = DIRECTION('',(0.,-1.,0.));
#306 = DEFINITIONAL_REPRESENTATION('',(#307),#310);
#307 = B_SPLINE_CURVE_WITH_KNOTS('',1,(#308,#309),.UNSPECIFIED.,.F.,.F.,
  (2,2),(4.712388980385,6.28318530718),.PIECEWISE_BEZIER_KNOTS.);
#308 = CARTESIAN_POINT('',(1.570796326795,22.));
#309 = CARTESIAN_POINT('',(0.,22.));
#310 = ( GEOMETRIC_REPRESENTATION_CONTEXT(2) 
PARAMETRIC_REPRESENTATION_CONTEXT() REPRESENTATION_CONTEXT('2D SPACE',''
  ) );
#311 = ORIENTED_EDGE('',*,*,#54,.F.);
#312 = ADVANCED_FACE('',(#313),#219,.T.);
#313 = FACE_BOUND('',#314,.T.);
#314 = EDGE_LOOP('',(#315,#338,#339,#360));
#315 = ORIENTED_EDGE('',*,*,#316,.F.);
#316 = EDGE_CURVE('',#183,#317,#319,.T.);
#317 = VERTEX_POINT('',#318);
#318 = CARTESIAN_POINT('',(-69.,-35.,21.732050807569));
#319 = SURFACE_CURVE('',#320,(#324,#331),.PCURVE_S1.);
#320 = LINE('',#321,#322);
#321 = CARTESIAN_POINT('',(-69.,-35.,-74.));
#322 = VECTOR('',#323,1.);
#323 = DIRECTION('',(0.,0.,1.));
#324 = PCURVE('',#219,#325);
#325 = DEFINITIONAL_REPRESENTATION('',(#326),#330);
#326 = LINE('',#327,#328);
#327 = CARTESIAN_POINT('',(0.,0.));
#328 = VECTOR('',#329,1.);
#329 = DIRECTION('',(1.,0.));
#330 = ( GEOMETRIC_REPRESENTATION_CONTEXT(2) 
PARAMETRIC_REPRESENTATION_CONTEXT() REPRESENTATION_CONTEXT('2D SPACE',''
  ) );
#331 = PCURVE('',#275,#332);
#332 = DEFINITIONAL_REPRESENTATION('',(#333),#337);
#333 = LINE('',#334,#335);
#334 = CARTESIAN_POINT('',(0.,0.));
#335 = VECTOR('',#336,1.);
#336 = DIRECTION('',(1.,0.));
#337 = ( GEOMETRIC_REPRESENTATION_CONTEXT(2) 
PARAMETRIC_REPRESENTATION_CONTEXT() REPRESENTATION_CONTEXT('2D SPACE',''
  ) );
#338 = ORIENTED_EDGE('',*,*,#182,.T.);
#339 = ORIENTED_EDGE('',*,*,#340,.T.);
#340 = EDGE_CURVE('',#142,#341,#343,.T.);
#341 = VERTEX_POINT('',#342);
#342 = CARTESIAN_POINT('',(-69.,-33.225,27.28693179603));
#343 = SURFACE_CURVE('',#344,(#348,#354),.PCURVE_S1.);
#344 = LINE('',#345,#346);
#345 = CARTESIAN_POINT('',(-69.,-33.225,-162.));
#346 = VECTOR('',#347,1.);
#347 = DIRECTION('',(0.,0.,1.));
#348 = PCURVE('',#219,#349);
#349 = DEFINITIONAL_REPRESENTATION('',(#350),#353);
#350 = B_SPLINE_CURVE_WITH_KNOTS('',1,(#351,#352),.UNSPECIFIED.,.F.,.F.,
  (2,2),(98.900331129458,197.09966887054),.PIECEWISE_BEZIER_KNOTS.);
#351 = CARTESIAN_POINT('',(10.900331129458,-1.775));
#352 = CARTESIAN_POINT('',(109.09966887054,-1.775));
#353 = ( GEOMETRIC_REPRESENTATION_CONTEXT(2) 
PARAMETRIC_REPRESENTATION_CONTEXT() REPRESENTATION_CONTEXT('2D SPACE',''
  ) );
#354 = PCURVE('',#43,#355);
#355 = DEFINITIONAL_REPRESENTATION('',(#356),#359);
#356 = B_SPLINE_CURVE_WITH_KNOTS('',1,(#357,#358),.UNSPECIFIED.,.F.,.F.,
  (2,2),(98.900331129458,197.09966887054),.PIECEWISE_BEZIER_KNOTS.);
#357 = CARTESIAN_POINT('',(186.90033112945,181.));
#358 = CARTESIAN_POINT('',(285.09966887054,181.));
#359 = ( GEOMETRIC_REPRESENTATION_CONTEXT(2) 
PARAMETRIC_REPRESENTATION_CONTEXT() REPRESENTATION_CONTEXT('2D SPACE',''
  ) );
#360 = ORIENTED_EDGE('',*,*,#361,.T.);
#361 = EDGE_CURVE('',#341,#317,#362,.T.);
#362 = SURFACE_CURVE('',#363,(#368,#375),.PCURVE_S1.);
#363 = CIRCLE('',#364,15.099668870541);
#364 = AXIS2_PLACEMENT_3D('',#365,#366,#367);
#365 = CARTESIAN_POINT('',(-69.,-20.,20.));
#366 = DIRECTION('',(1.,0.,-0.));
#367 = DIRECTION('',(0.,0.,1.));
#368 = PCURVE('',#219,#369);
#369 = DEFINITIONAL_REPRESENTATION('',(#370),#374);
#370 = CIRCLE('',#371,15.099668870541);
#371 = AXIS2_PLACEMENT_2D('',#372,#373);
#372 = CARTESIAN_POINT('',(94.,-15.));
#373 = DIRECTION('',(1.,0.));
#374 = ( GEOMETRIC_REPRESENTATION_CONTEXT(2) 
PARAMETRIC_REPRESENTATION_CONTEXT() REPRESENTATION_CONTEXT('2D SPACE',''
  ) );
#375 = PCURVE('',#126,#376);
#376 = DEFINITIONAL_REPRESENTATION('',(#377),#401);
#377 = B_SPLINE_CURVE_WITH_KNOTS('',8,(#378,#379,#380,#381,#382,#383,
    #384,#385,#386,#387,#388,#389,#390,#391,#392,#393,#394,#395,#396,
    #397,#398,#399,#400),.UNSPECIFIED.,.F.,.F.,(9,7,7,9),(0.,
    0.363958851574,0.909897128934,1.455835406294),.UNSPECIFIED.);
#378 = CARTESIAN_POINT('',(0.,-0.756456384668));
#379 = CARTESIAN_POINT('',(-4.293482922862E-02,-0.756456384668));
#380 = CARTESIAN_POINT('',(-8.586959204279E-02,-0.754224021424));
#381 = CARTESIAN_POINT('',(-0.12842811649,-0.749759330061));
#382 = CARTESIAN_POINT('',(-0.170232476523,-0.743098376962));
#383 = CARTESIAN_POINT('',(-0.210942040753,-0.734313849283));
#384 = CARTESIAN_POINT('',(-0.250280563107,-0.72350685942));
#385 = CARTESIAN_POINT('',(-0.288046239196,-0.710795747209));
#386 = CARTESIAN_POINT('',(-0.378179771676,-0.674575535743));
#387 = CARTESIAN_POINT('',(-0.428407474134,-0.648845240926));
#388 = CARTESIAN_POINT('',(-0.474313424108,-0.619545745106));
#389 = CARTESIAN_POINT('',(-0.515753736102,-0.587151457101));
#390 = CARTESIAN_POINT('',(-0.552850294732,-0.552113326664));
#391 = CARTESIAN_POINT('',(-0.585811613693,-0.514828887184));
#392 = CARTESIAN_POINT('',(-0.614883594274,-0.475648139082));
#393 = CARTESIAN_POINT('',(-0.665726691137,-0.394106775152));
#394 = CARTESIAN_POINT('',(-0.68749780814,-0.3517461585));
#395 = CARTESIAN_POINT('',(-0.705857996997,-0.308102220963));
#396 = CARTESIAN_POINT('',(-0.72104062145,-0.263438150992));
#397 = CARTESIAN_POINT('',(-0.733239136941,-0.217981598869));
#398 = CARTESIAN_POINT('',(-0.742598946169,-0.171934831556));
#399 = CARTESIAN_POINT('',(-0.749219502026,-0.125484847287));
#400 = CARTESIAN_POINT('',(-0.753151280962,-7.881114207211E-02));
#401 = ( GEOMETRIC_REPRESENTATION_CONTEXT(2) 
PARAMETRIC_REPRESENTATION_CONTEXT() REPRESENTATION_CONTEXT('2D SPACE',''
  ) );
#402 = ADVANCED_FACE('',(#403),#275,.T.);
#403 = FACE_BOUND('',#404,.T.);
#404 = EDGE_LOOP('',(#405,#435,#484,#503,#504,#505,#549,#575,#736,#757)
  );
#405 = ORIENTED_EDGE('',*,*,#406,.F.);
#406 = EDGE_CURVE('',#407,#409,#411,.T.);
#407 = VERTEX_POINT('',#408);
#408 = CARTESIAN_POINT('',(69.,-35.,-49.73205080756));
#409 = VERTEX_POINT('',#410);
#410 = CARTESIAN_POINT('',(69.,-35.,21.732050807569));
#411 = SURFACE_CURVE('',#412,(#416,#423),.PCURVE_S1.);
#412 = LINE('',#413,#414);
#413 = CARTESIAN_POINT('',(69.,-35.,-74.));
#414 = VECTOR('',#415,1.);
#415 = DIRECTION('',(0.,0.,1.));
#416 = PCURVE('',#275,#417);
#417 = DEFINITIONAL_REPRESENTATION('',(#418),#422);
#418 = LINE('',#419,#420);
#419 = CARTESIAN_POINT('',(0.,138.));
#420 = VECTOR('',#421,1.);
#421 = DIRECTION('',(1.,0.));
#422 = ( GEOMETRIC_REPRESENTATION_CONTEXT(2) 
PARAMETRIC_REPRESENTATION_CONTEXT() REPRESENTATION_CONTEXT('2D SPACE',''
  ) );
#423 = PCURVE('',#424,#429);
#424 = PLANE('',#425);
#425 = AXIS2_PLACEMENT_3D('',#426,#427,#428);
#426 = CARTESIAN_POINT('',(69.,-35.,-74.));
#427 = DIRECTION('',(1.,0.,-0.));
#428 = DIRECTION('',(0.,0.,1.));
#429 = DEFINITIONAL_REPRESENTATION('',(#430),#434);
#430 = LINE('',#431,#432);
#431 = CARTESIAN_POINT('',(0.,0.));
#432 = VECTOR('',#433,1.);
#433 = DIRECTION('',(1.,0.));
#434 = ( GEOMETRIC_REPRESENTATION_CONTEXT(2) 
PARAMETRIC_REPRESENTATION_CONTEXT() REPRESENTATION_CONTEXT('2D SPACE',''
  ) );
#435 = ORIENTED_EDGE('',*,*,#436,.T.);
#436 = EDGE_CURVE('',#407,#437,#439,.T.);
#437 = VERTEX_POINT('',#438);
#438 = CARTESIAN_POINT('',(53.,-35.,-64.09347693943));
#439 = SURFACE_CURVE('',#440,(#445,#452),.PCURVE_S1.);
#440 = CIRCLE('',#441,16.093476939431);
#441 = AXIS2_PLACEMENT_3D('',#442,#443,#444);
#442 = CARTESIAN_POINT('',(53.,-35.,-48.));
#443 = DIRECTION('',(-0.,1.,0.));
#444 = DIRECTION('',(0.,0.,1.));
#445 = PCURVE('',#275,#446);
#446 = DEFINITIONAL_REPRESENTATION('',(#447),#451);
#447 = CIRCLE('',#448,16.093476939431);
#448 = AXIS2_PLACEMENT_2D('',#449,#450);
#449 = CARTESIAN_POINT('',(26.,122.));
#450 = DIRECTION('',(1.,0.));
#451 = ( GEOMETRIC_REPRESENTATION_CONTEXT(2) 
PARAMETRIC_REPRESENTATION_CONTEXT() REPRESENTATION_CONTEXT('2D SPACE',''
  ) );
#452 = PCURVE('',#453,#458);
#453 = SPHERICAL_SURFACE('',#454,22.);
#454 = AXIS2_PLACEMENT_3D('',#455,#456,#457);
#455 = CARTESIAN_POINT('',(53.,-20.,-48.));
#456 = DIRECTION('',(0.,0.,1.));
#457 = DIRECTION('',(1.,0.,-0.));
#458 = DEFINITIONAL_REPRESENTATION('',(#459),#483);
#459 = B_SPLINE_CURVE_WITH_KNOTS('',8,(#460,#461,#462,#463,#464,#465,
    #466,#467,#468,#469,#470,#471,#472,#473,#474,#475,#476,#477,#478,
    #479,#480,#481,#482),.UNSPECIFIED.,.F.,.F.,(9,7,7,9),(1.6786295869,
    2.410111120245,2.775851886917,3.14159265359),.UNSPECIFIED.);
#460 = CARTESIAN_POINT('',(-0.753151280962,-7.881114207211E-02));
#461 = CARTESIAN_POINT('',(-0.758090066749,-0.145516516162));
#462 = CARTESIAN_POINT('',(-0.767855711702,-0.211868953492));
#463 = CARTESIAN_POINT('',(-0.782587530592,-0.277463160803));
#464 = CARTESIAN_POINT('',(-0.802611958322,-0.341871516482));
#465 = CARTESIAN_POINT('',(-0.828457360562,-0.404595827885));
#466 = CARTESIAN_POINT('',(-0.860841796626,-0.46503695694));
#467 = CARTESIAN_POINT('',(-0.900739362589,-0.522396481175));
#468 = CARTESIAN_POINT('',(-0.973087946532,-0.602290609768));
#469 = CARTESIAN_POINT('',(-0.999287797921,-0.627897808505));
#470 = CARTESIAN_POINT('',(-1.027674278806,-0.652353963586));
#471 = CARTESIAN_POINT('',(-1.058339718284,-0.67551889186));
#472 = CARTESIAN_POINT('',(-1.091356128326,-0.697238666467));
#473 = CARTESIAN_POINT('',(-1.126751459227,-0.717347342031));
#474 = CARTESIAN_POINT('',(-1.164481748654,-0.735673115287));
#475 = CARTESIAN_POINT('',(-1.24433650931,-0.768429294044));
#476 = CARTESIAN_POINT('',(-1.286461019331,-0.782859697284));
#477 = CARTESIAN_POINT('',(-1.330645192107,-0.795177550761));
#478 = CARTESIAN_POINT('',(-1.37665849484,-0.805224997838));
#479 = CARTESIAN_POINT('',(-1.424161170893,-0.812862663753));
#480 = CARTESIAN_POINT('',(-1.472695654218,-0.81798826286));
#481 = CARTESIAN_POINT('',(-1.521745988509,-0.820551082808));
#482 = CARTESIAN_POINT('',(-1.570796326795,-0.820551082808));
#483 = ( GEOMETRIC_REPRESENTATION_CONTEXT(2) 
PARAMETRIC_REPRESENTATION_CONTEXT() REPRESENTATION_CONTEXT('2D SPACE',''
  ) );
#484 = ORIENTED_EDGE('',*,*,#485,.F.);
#485 = EDGE_CURVE('',#232,#437,#486,.T.);
#486 = SURFACE_CURVE('',#487,(#491,#497),.PCURVE_S1.);
#487 = LINE('',#488,#489);
#488 = CARTESIAN_POINT('',(-75.,-35.,-64.09347693943));
#489 = VECTOR('',#490,1.);
#490 = DIRECTION('',(1.,0.,-0.));
#491 = PCURVE('',#275,#492);
#492 = DEFINITIONAL_REPRESENTATION('',(#493),#496);
#493 = B_SPLINE_CURVE_WITH_KNOTS('',1,(#494,#495),.UNSPECIFIED.,.F.,.F.,
  (2,2),(21.9999994,128.0000006),.PIECEWISE_BEZIER_KNOTS.);
#494 = CARTESIAN_POINT('',(9.906523060569,15.9999994));
#495 = CARTESIAN_POINT('',(9.906523060569,122.0000006));
#496 = ( GEOMETRIC_REPRESENTATION_CONTEXT(2) 
PARAMETRIC_REPRESENTATION_CONTEXT() REPRESENTATION_CONTEXT('2D SPACE',''
  ) );
#497 = PCURVE('',#301,#498);
#498 = DEFINITIONAL_REPRESENTATION('',(#499),#502);
#499 = B_SPLINE_CURVE_WITH_KNOTS('',1,(#500,#501),.UNSPECIFIED.,.F.,.F.,
  (2,2),(21.9999994,128.0000006),.PIECEWISE_BEZIER_KNOTS.);
#500 = CARTESIAN_POINT('',(0.820551082808,21.9999994));
#501 = CARTESIAN_POINT('',(0.820551082808,128.0000006));
#502 = ( GEOMETRIC_REPRESENTATION_CONTEXT(2) 
PARAMETRIC_REPRESENTATION_CONTEXT() REPRESENTATION_CONTEXT('2D SPACE',''
  ) );
#503 = ORIENTED_EDGE('',*,*,#231,.T.);
#504 = ORIENTED_EDGE('',*,*,#316,.T.);
#505 = ORIENTED_EDGE('',*,*,#506,.T.);
#506 = EDGE_CURVE('',#317,#507,#509,.T.);
#507 = VERTEX_POINT('',#508);
#508 = CARTESIAN_POINT('',(-53.,-35.,36.093476939431));
#509 = SURFACE_CURVE('',#510,(#515,#522),.PCURVE_S1.);
#510 = CIRCLE('',#511,16.093476939431);
#511 = AXIS2_PLACEMENT_3D('',#512,#513,#514);
#512 = CARTESIAN_POINT('',(-53.,-35.,20.));
#513 = DIRECTION('',(-0.,1.,0.));
#514 = DIRECTION('',(0.,0.,1.));
#515 = PCURVE('',#275,#516);
#516 = DEFINITIONAL_REPRESENTATION('',(#517),#521);
#517 = CIRCLE('',#518,16.093476939431);
#518 = AXIS2_PLACEMENT_2D('',#519,#520);
#519 = CARTESIAN_POINT('',(94.,16.));
#520 = DIRECTION('',(1.,0.));
#521 = ( GEOMETRIC_REPRESENTATION_CONTEXT(2) 
PARAMETRIC_REPRESENTATION_CONTEXT() REPRESENTATION_CONTEXT('2D SPACE',''
  ) );
#522 = PCURVE('',#126,#523);
#523 = DEFINITIONAL_REPRESENTATION('',(#524),#548);
#524 = B_SPLINE_CURVE_WITH_KNOTS('',8,(#525,#526,#527,#528,#529,#530,
    #531,#532,#533,#534,#535,#536,#537,#538,#539,#540,#541,#542,#543,
    #544,#545,#546,#547),.UNSPECIFIED.,.F.,.F.,(9,7,7,9),(4.82022224049,
    5.551703773835,5.917444540507,6.28318530718),.UNSPECIFIED.);
#525 = CARTESIAN_POINT('',(-0.753151280962,-7.881114207211E-02));
#526 = CARTESIAN_POINT('',(-0.758090066749,-0.145516516162));
#527 = CARTESIAN_POINT('',(-0.767855711702,-0.211868953492));
#528 = CARTESIAN_POINT('',(-0.782587530592,-0.277463160803));
#529 = CARTESIAN_POINT('',(-0.802611958322,-0.341871516482));
#530 = CARTESIAN_POINT('',(-0.828457360562,-0.404595827884));
#531 = CARTESIAN_POINT('',(-0.860841796626,-0.46503695694));
#532 = CARTESIAN_POINT('',(-0.900739362589,-0.522396481175));
#533 = CARTESIAN_POINT('',(-0.973087946532,-0.602290609768));
#534 = CARTESIAN_POINT('',(-0.99928779792,-0.627897808505));
#535 = CARTESIAN_POINT('',(-1.027674278806,-0.652353963585));
#536 = CARTESIAN_POINT('',(-1.058339718284,-0.675518891859));
#537 = CARTESIAN_POINT('',(-1.091356128326,-0.697238666467));
#538 = CARTESIAN_POINT('',(-1.126751459227,-0.717347342031));
#539 = CARTESIAN_POINT('',(-1.164481748654,-0.735673115287));
#540 = CARTESIAN_POINT('',(-1.24433650931,-0.768429294044));
#541 = CARTESIAN_POINT('',(-1.286461019331,-0.782859697284));
#542 = CARTESIAN_POINT('',(-1.33064519211,-0.79517755076));
#543 = CARTESIAN_POINT('',(-1.376658494841,-0.805224997841));
#544 = CARTESIAN_POINT('',(-1.424161170896,-0.812862663749));
#545 = CARTESIAN_POINT('',(-1.472695654218,-0.81798826286));
#546 = CARTESIAN_POINT('',(-1.521745988509,-0.820551082808));
#547 = CARTESIAN_POINT('',(-1.570796326795,-0.820551082808));
#548 = ( GEOMETRIC_REPRESENTATION_CONTEXT(2) 
PARAMETRIC_REPRESENTATION_CONTEXT() REPRESENTATION_CONTEXT('2D SPACE',''
  ) );
#549 = ORIENTED_EDGE('',*,*,#550,.T.);
#550 = EDGE_CURVE('',#507,#551,#553,.T.);
#551 = VERTEX_POINT('',#552);
#552 = CARTESIAN_POINT('',(-32.04526869776,-35.,36.093476939431));
#553 = SURFACE_CURVE('',#554,(#558,#564),.PCURVE_S1.);
#554 = LINE('',#555,#556);
#555 = CARTESIAN_POINT('',(-75.,-35.,36.093476939431));
#556 = VECTOR('',#557,1.);
#557 = DIRECTION('',(1.,0.,-0.));
#558 = PCURVE('',#275,#559);
#559 = DEFINITIONAL_REPRESENTATION('',(#560),#563);
#560 = B_SPLINE_CURVE_WITH_KNOTS('',1,(#561,#562),.UNSPECIFIED.,.F.,.F.,
  (2,2),(21.9999994,128.0000006),.PIECEWISE_BEZIER_KNOTS.);
#561 = CARTESIAN_POINT('',(110.09347693943,15.9999994));
#562 = CARTESIAN_POINT('',(110.09347693943,122.0000006));
#563 = ( GEOMETRIC_REPRESENTATION_CONTEXT(2) 
PARAMETRIC_REPRESENTATION_CONTEXT() REPRESENTATION_CONTEXT('2D SPACE',''
  ) );
#564 = PCURVE('',#565,#570);
#565 = CYLINDRICAL_SURFACE('',#566,22.);
#566 = AXIS2_PLACEMENT_3D('',#567,#568,#569);
#567 = CARTESIAN_POINT('',(-75.,-20.,20.));
#568 = DIRECTION('',(1.,0.,-0.));
#569 = DIRECTION('',(0.,-1.,0.));
#570 = DEFINITIONAL_REPRESENTATION('',(#571),#574);
#571 = B_SPLINE_CURVE_WITH_KNOTS('',1,(#572,#573),.UNSPECIFIED.,.F.,.F.,
  (2,2),(21.9999994,128.0000006),.PIECEWISE_BEZIER_KNOTS.);
#572 = CARTESIAN_POINT('',(-0.820551082808,21.9999994));
#573 = CARTESIAN_POINT('',(-0.820551082808,128.0000006));
#574 = ( GEOMETRIC_REPRESENTATION_CONTEXT(2) 
PARAMETRIC_REPRESENTATION_CONTEXT() REPRESENTATION_CONTEXT('2D SPACE',''
  ) );
#575 = ORIENTED_EDGE('',*,*,#576,.T.);
#576 = EDGE_CURVE('',#551,#577,#579,.T.);
#577 = VERTEX_POINT('',#578);
#578 = CARTESIAN_POINT('',(32.045268697767,-35.,36.093476939431));
#579 = SURFACE_CURVE('',#580,(#613,#649),.PCURVE_S1.);
#580 = B_SPLINE_CURVE_WITH_KNOTS('',6,(#581,#582,#583,#584,#585,#586,
    #587,#588,#589,#590,#591,#592,#593,#594,#595,#596,#597,#598,#599,
    #600,#601,#602,#603,#604,#605,#606,#607,#608,#609,#610,#611,#612),
  .UNSPECIFIED.,.F.,.F.,(7,5,5,5,5,5,7),(0.,1.,1.649842702575,
    3.195866127261,4.804245580894,5.466971061141,6.391642964898),
  .UNSPECIFIED.);
#581 = CARTESIAN_POINT('',(-32.04526869776,-35.,36.093476939431));
#582 = CARTESIAN_POINT('',(-30.56234519741,-35.,35.145192422608));
#583 = CARTESIAN_POINT('',(-29.04151384707,-35.,34.256239696636));
#584 = CARTESIAN_POINT('',(-27.48669833891,-35.,33.426924071907));
#585 = CARTESIAN_POINT('',(-25.90158537895,-35.,32.657371254873));
#586 = CARTESIAN_POINT('',(-24.28960017289,-35.,31.947576498538));
#587 = CARTESIAN_POINT('',(-21.59092233673,-35.,30.874976230953));
#588 = CARTESIAN_POINT('',(-20.51794903715,-35.,30.477701469761));
#589 = CARTESIAN_POINT('',(-19.43583066143,-35.,30.105608428354));
#590 = CARTESIAN_POINT('',(-18.3454031272,-35.,29.758667923874));
#591 = CARTESIAN_POINT('',(-17.24746868673,-35.,29.436845590371));
#592 = CARTESIAN_POINT('',(-13.5146952966,-35.,28.434136834616));
#593 = CARTESIAN_POINT('',(-10.8486023381,-35.,27.870170930031));
#594 = CARTESIAN_POINT('',(-8.154626513159,-35.,27.447623956229));
#595 = CARTESIAN_POINT('',(-5.442438324915,-35.,27.166124106019));
#596 = CARTESIAN_POINT('',(-2.721295442134,-35.,27.025360524823));
#597 = CARTESIAN_POINT('',(2.831025369318,-35.,27.025359294142));
#598 = CARTESIAN_POINT('',(5.661923569058,-35.,27.17770546485));
#599 = CARTESIAN_POINT('',(8.482778655459,-35.,27.482370171403));
#600 = CARTESIAN_POINT('',(11.283147210403,-35.,27.939729006172));
#601 = CARTESIAN_POINT('',(14.052082734088,-35.,28.550210207839));
#602 = CARTESIAN_POINT('',(17.901344410468,-35.,29.629399539407));
#603 = CARTESIAN_POINT('',(19.017270100041,-35.,29.970417458604));
#604 = CARTESIAN_POINT('',(20.125054780871,-35.,30.337576412316));
#605 = CARTESIAN_POINT('',(21.223836437586,-35.,30.730911661556));
#606 = CARTESIAN_POINT('',(22.31271540824,-35.,31.150451618998));
#607 = CARTESIAN_POINT('',(24.894897799539,-35.,32.218167750998));
#608 = CARTESIAN_POINT('',(26.377923621278,-35.,32.891163386799));
#609 = CARTESIAN_POINT('',(27.837306631541,-35.,33.615256452706));
#610 = CARTESIAN_POINT('',(29.270308990057,-35.,34.390436213883));
#611 = CARTESIAN_POINT('',(30.673998994559,-35.,35.216591633051));
#612 = CARTESIAN_POINT('',(32.045268697767,-35.,36.093476939431));
#613 = PCURVE('',#275,#614);
#614 = DEFINITIONAL_REPRESENTATION('',(#615),#648);
#615 = B_SPLINE_CURVE_WITH_KNOTS('',6,(#616,#617,#618,#619,#620,#621,
    #622,#623,#624,#625,#626,#627,#628,#629,#630,#631,#632,#633,#634,
    #635,#636,#637,#638,#639,#640,#641,#642,#643,#644,#645,#646,#647),
  .UNSPECIFIED.,.F.,.F.,(7,5,5,5,5,5,7),(0.,1.,1.649842702575,
    3.195866127261,4.804245580894,5.466971061141,6.391642964898),
  .UNSPECIFIED.);
#616 = CARTESIAN_POINT('',(110.09347693943,36.954731302233));
#617 = CARTESIAN_POINT('',(109.1451924226,38.437654802581));
#618 = CARTESIAN_POINT('',(108.25623969663,39.958486152926));
#619 = CARTESIAN_POINT('',(107.4269240719,41.513301661082));
#620 = CARTESIAN_POINT('',(106.65737125487,43.098414621045));
#621 = CARTESIAN_POINT('',(105.94757649853,44.710399827104));
#622 = CARTESIAN_POINT('',(104.87497623095,47.40907766327));
#623 = CARTESIAN_POINT('',(104.47770146976,48.482050962841));
#624 = CARTESIAN_POINT('',(104.10560842835,49.564169338562));
#625 = CARTESIAN_POINT('',(103.75866792387,50.654596872793));
#626 = CARTESIAN_POINT('',(103.43684559037,51.75253131327));
#627 = CARTESIAN_POINT('',(102.43413683461,55.485304703393));
#628 = CARTESIAN_POINT('',(101.87017093003,58.151397661897));
#629 = CARTESIAN_POINT('',(101.44762395622,60.845373486841));
#630 = CARTESIAN_POINT('',(101.16612410601,63.557561675085));
#631 = CARTESIAN_POINT('',(101.02536052482,66.278704557866));
#632 = CARTESIAN_POINT('',(101.02535929414,71.831025369318));
#633 = CARTESIAN_POINT('',(101.17770546485,74.661923569058));
#634 = CARTESIAN_POINT('',(101.4823701714,77.482778655459));
#635 = CARTESIAN_POINT('',(101.93972900617,80.283147210403));
#636 = CARTESIAN_POINT('',(102.55021020783,83.052082734088));
#637 = CARTESIAN_POINT('',(103.6293995394,86.901344410468));
#638 = CARTESIAN_POINT('',(103.9704174586,88.017270100041));
#639 = CARTESIAN_POINT('',(104.33757641231,89.125054780871));
#640 = CARTESIAN_POINT('',(104.73091166155,90.223836437586));
#641 = CARTESIAN_POINT('',(105.15045161899,91.31271540824));
#642 = CARTESIAN_POINT('',(106.21816775099,93.894897799539));
#643 = CARTESIAN_POINT('',(106.89116338679,95.377923621278));
#644 = CARTESIAN_POINT('',(107.6152564527,96.837306631541));
#645 = CARTESIAN_POINT('',(108.39043621388,98.270308990057));
#646 = CARTESIAN_POINT('',(109.21659163305,99.673998994559));
#647 = CARTESIAN_POINT('',(110.09347693943,101.04526869776));
#648 = ( GEOMETRIC_REPRESENTATION_CONTEXT(2) 
PARAMETRIC_REPRESENTATION_CONTEXT() REPRESENTATION_CONTEXT('2D SPACE',''
  ) );
#649 = PCURVE('',#650,#686);
#650 = ( BOUNDED_SURFACE() B_SPLINE_SURFACE(2,2,(
    (#651,#652,#653,#654,#655)
    ,(#656,#657,#658,#659,#660)
    ,(#661,#662,#663,#664,#665)
    ,(#666,#667,#668,#669,#670)
    ,(#671,#672,#673,#674,#675)
    ,(#676,#677,#678,#679,#680)
    ,(#681,#682,#683,#684,#685
)),.UNSPECIFIED.,.T.,.F.,.F.) B_SPLINE_SURFACE_WITH_KNOTS((1,2,2,2,2,1),
  (3,2,3),(-2.094395102393,0.,2.094395102393,4.188790204786,
    6.28318530718,8.377580409573),(-1.570796326795,0.,1.570796326795),
.UNSPECIFIED.) GEOMETRIC_REPRESENTATION_ITEM() RATIONAL_B_SPLINE_SURFACE
((
    (1.,0.707106781187,1.,0.707106781187,1.)
    ,(0.5,0.353553390593,0.5,0.353553390593,0.5)
    ,(1.,0.707106781187,1.,0.707106781187,1.)
    ,(0.5,0.353553390593,0.5,0.353553390593,0.5)
    ,(1.,0.707106781187,1.,0.707106781187,1.)
    ,(0.5,0.353553390593,0.5,0.353553390593,0.5)
,(1.,0.707106781187,1.,0.707106781187,1.
))) REPRESENTATION_ITEM('') SURFACE() );
#651 = CARTESIAN_POINT('',(4.812861920649E-15,7.,5.4));
#652 = CARTESIAN_POINT('',(78.6,7.,5.4));
#653 = CARTESIAN_POINT('',(78.6,7.,71.));
#654 = CARTESIAN_POINT('',(78.6,7.,136.6));
#655 = CARTESIAN_POINT('',(4.812861920649E-15,7.,136.6));
#656 = CARTESIAN_POINT('',(4.812861920649E-15,7.,5.4));
#657 = CARTESIAN_POINT('',(78.6,105.03407570839,5.4));
#658 = CARTESIAN_POINT('',(78.6,105.03407570839,71.));
#659 = CARTESIAN_POINT('',(78.6,105.03407570839,136.6));
#660 = CARTESIAN_POINT('',(4.812861920649E-15,7.,136.6));
#661 = CARTESIAN_POINT('',(-2.406430960325E-15,7.,5.4));
#662 = CARTESIAN_POINT('',(-39.3,56.017037854199,5.4));
#663 = CARTESIAN_POINT('',(-39.3,56.017037854199,71.));
#664 = CARTESIAN_POINT('',(-39.3,56.017037854199,136.6));
#665 = CARTESIAN_POINT('',(-2.406430960325E-15,7.,136.6));
#666 = CARTESIAN_POINT('',(-9.625723841298E-15,7.,5.4));
#667 = CARTESIAN_POINT('',(-157.2,7.,5.4));
#668 = CARTESIAN_POINT('',(-157.2,7.,71.));
#669 = CARTESIAN_POINT('',(-157.2,7.,136.6));
#670 = CARTESIAN_POINT('',(-9.625723841298E-15,7.,136.6));
#671 = CARTESIAN_POINT('',(-2.406430960325E-15,7.,5.4));
#672 = CARTESIAN_POINT('',(-39.3,-42.01703785419,5.4));
#673 = CARTESIAN_POINT('',(-39.3,-42.01703785419,71.));
#674 = CARTESIAN_POINT('',(-39.3,-42.01703785419,136.6));
#675 = CARTESIAN_POINT('',(-2.406430960325E-15,7.,136.6));
#676 = CARTESIAN_POINT('',(4.812861920649E-15,7.,5.4));
#677 = CARTESIAN_POINT('',(78.6,-91.03407570839,5.4));
#678 = CARTESIAN_POINT('',(78.6,-91.03407570839,71.));
#679 = CARTESIAN_POINT('',(78.6,-91.03407570839,136.6));
#680 = CARTESIAN_POINT('',(4.812861920649E-15,7.,136.6));
#681 = CARTESIAN_POINT('',(4.812861920649E-15,7.,5.4));
#682 = CARTESIAN_POINT('',(78.6,7.,5.4));
#683 = CARTESIAN_POINT('',(78.6,7.,71.));
#684 = CARTESIAN_POINT('',(78.6,7.,136.6));
#685 = CARTESIAN_POINT('',(4.812861920649E-15,7.,136.6));
#686 = DEFINITIONAL_REPRESENTATION('',(#687),#735);
#687 = B_SPLINE_CURVE_WITH_KNOTS('',3,(#688,#689,#690,#691,#692,#693,
    #694,#695,#696,#697,#698,#699,#700,#701,#702,#703,#704,#705,#706,
    #707,#708,#709,#710,#711,#712,#713,#714,#715,#716,#717,#718,#719,
    #720,#721,#722,#723,#724,#725,#726,#727,#728,#729,#730,#731,#732,
    #733,#734),.UNSPECIFIED.,.F.,.F.,(4,1,1,1,1,1,1,1,1,1,1,1,1,1,1,1,1,
    1,1,1,1,1,1,1,1,1,1,1,1,1,1,1,1,1,1,1,1,1,1,1,1,1,1,1,4),(0.,
    0.145264612839,0.290529225677,0.435793838516,0.581058451354,
    0.726323064193,0.871587677032,1.01685228987,1.162116902709,
    1.307381515547,1.452646128386,1.597910741225,1.743175354063,
    1.888439966902,2.03370457974,2.178969192579,2.324233805418,
    2.469498418256,2.614763031095,2.760027643933,2.905292256772,
    3.050556869611,3.195821482449,3.341086095288,3.486350708126,
    3.631615320965,3.776879933804,3.922144546642,4.067409159481,
    4.212673772319,4.357938385158,4.503202997997,4.648467610835,
    4.793732223674,4.938996836512,5.084261449351,5.22952606219,
    5.374790675028,5.520055287867,5.665319900705,5.810584513544,
    5.955849126383,6.101113739221,6.24637835206,6.391642964898),
  .QUASI_UNIFORM_KNOTS.);
#688 = CARTESIAN_POINT('',(4.214266715725,-0.57184708244));
#689 = CARTESIAN_POINT('',(4.221045103033,-0.576609355583));
#690 = CARTESIAN_POINT('',(4.234789979235,-0.585954196143));
#691 = CARTESIAN_POINT('',(4.255950652757,-0.599422515494));
#692 = CARTESIAN_POINT('',(4.277634318393,-0.612332247054));
#693 = CARTESIAN_POINT('',(4.299818584501,-0.624673121487));
#694 = CARTESIAN_POINT('',(4.322479675108,-0.636434554161));
#695 = CARTESIAN_POINT('',(4.345592199902,-0.647605653874));
#696 = CARTESIAN_POINT('',(4.36912927262,-0.658175360137));
#697 = CARTESIAN_POINT('',(4.393062221783,-0.668132399812));
#698 = CARTESIAN_POINT('',(4.417360638114,-0.677465415879));
#699 = CARTESIAN_POINT('',(4.441992475498,-0.68616310863));
#700 = CARTESIAN_POINT('',(4.466924022116,-0.694214313878));
#701 = CARTESIAN_POINT('',(4.492119966641,-0.701608117997));
#702 = CARTESIAN_POINT('',(4.517543081053,-0.7083338896));
#703 = CARTESIAN_POINT('',(4.543155659506,-0.714381748554));
#704 = CARTESIAN_POINT('',(4.568918436747,-0.719742318231));
#705 = CARTESIAN_POINT('',(4.594791083099,-0.724406962389));
#706 = CARTESIAN_POINT('',(4.620732390011,-0.728367901472));
#707 = CARTESIAN_POINT('',(4.646700574623,-0.731618343603));
#708 = CARTESIAN_POINT('',(4.672653573456,-0.734152590148));
#709 = CARTESIAN_POINT('',(4.698549386377,-0.735966122978));
#710 = CARTESIAN_POINT('',(4.724346320376,-0.737055668151));
#711 = CARTESIAN_POINT('',(4.750003633761,-0.737419235067));
#712 = CARTESIAN_POINT('',(4.775480685704,-0.737056128086));
#713 = CARTESIAN_POINT('',(4.800738024657,-0.73596703744));
#714 = CARTESIAN_POINT('',(4.825738352057,-0.734153945092));
#715 = CARTESIAN_POINT('',(4.850445630463,-0.73162011505));
#716 = CARTESIAN_POINT('',(4.874825654448,-0.728370055347));
#717 = CARTESIAN_POINT('',(4.898846188724,-0.72440945561));
#718 = CARTESIAN_POINT('',(4.92247717731,-0.71974510124));
#719 = CARTESIAN_POINT('',(4.945690881638,-0.714384768211));
#720 = CARTESIAN_POINT('',(4.968461997237,-0.708337096356));
#721 = CARTESIAN_POINT('',(4.990767685548,-0.701611462449));
#722 = CARTESIAN_POINT('',(5.01258772554,-0.694217788136));
#723 = CARTESIAN_POINT('',(5.033904037544,-0.686166539581));
#724 = CARTESIAN_POINT('',(5.054700373202,-0.677468769566));
#725 = CARTESIAN_POINT('',(5.074963258082,-0.66813559633));
#726 = CARTESIAN_POINT('',(5.094681144758,-0.658178348302));
#727 = CARTESIAN_POINT('',(5.113844562462,-0.647608343748));
#728 = CARTESIAN_POINT('',(5.132445753722,-0.636436905408));
#729 = CARTESIAN_POINT('',(5.15047882439,-0.624675094695));
#730 = CARTESIAN_POINT('',(5.167939303175,-0.612333791236));
#731 = CARTESIAN_POINT('',(5.184824082225,-0.599423580653));
#732 = CARTESIAN_POINT('',(5.201131162105,-0.585954739558));
#733 = CARTESIAN_POINT('',(5.211617045073,-0.576609537115));
#734 = CARTESIAN_POINT('',(5.21676344922,-0.57184708244));
#735 = ( GEOMETRIC_REPRESENTATION_CONTEXT(2) 
PARAMETRIC_REPRESENTATION_CONTEXT() REPRESENTATION_CONTEXT('2D SPACE',''
  ) );
#736 = ORIENTED_EDGE('',*,*,#737,.T.);
#737 = EDGE_CURVE('',#577,#738,#740,.T.);
#738 = VERTEX_POINT('',#739);
#739 = CARTESIAN_POINT('',(53.,-35.,36.093476939431));
#740 = SURFACE_CURVE('',#741,(#745,#751),.PCURVE_S1.);
#741 = LINE('',#742,#743);
#742 = CARTESIAN_POINT('',(-75.,-35.,36.093476939431));
#743 = VECTOR('',#744,1.);
#744 = DIRECTION('',(1.,0.,-0.));
#745 = PCURVE('',#275,#746);
#746 = DEFINITIONAL_REPRESENTATION('',(#747),#750);
#747 = B_SPLINE_CURVE_WITH_KNOTS('',1,(#748,#749),.UNSPECIFIED.,.F.,.F.,
  (2,2),(21.9999994,128.0000006),.PIECEWISE_BEZIER_KNOTS.);
#748 = CARTESIAN_POINT('',(110.09347693943,15.9999994));
#749 = CARTESIAN_POINT('',(110.09347693943,122.0000006));
#750 = ( GEOMETRIC_REPRESENTATION_CONTEXT(2) 
PARAMETRIC_REPRESENTATION_CONTEXT() REPRESENTATION_CONTEXT('2D SPACE',''
  ) );
#751 = PCURVE('',#565,#752);
#752 = DEFINITIONAL_REPRESENTATION('',(#753),#756);
#753 = B_SPLINE_CURVE_WITH_KNOTS('',1,(#754,#755),.UNSPECIFIED.,.F.,.F.,
  (2,2),(21.9999994,128.0000006),.PIECEWISE_BEZIER_KNOTS.);
#754 = CARTESIAN_POINT('',(-0.820551082808,21.9999994));
#755 = CARTESIAN_POINT('',(-0.820551082808,128.0000006));
#756 = ( GEOMETRIC_REPRESENTATION_CONTEXT(2) 
PARAMETRIC_REPRESENTATION_CONTEXT() REPRESENTATION_CONTEXT('2D SPACE',''
  ) );
#757 = ORIENTED_EDGE('',*,*,#758,.T.);
#758 = EDGE_CURVE('',#738,#409,#759,.T.);
#759 = SURFACE_CURVE('',#760,(#765,#772),.PCURVE_S1.);
#760 = CIRCLE('',#761,16.093476939431);
#761 = AXIS2_PLACEMENT_3D('',#762,#763,#764);
#762 = CARTESIAN_POINT('',(53.,-35.,20.));
#763 = DIRECTION('',(-0.,1.,0.));
#764 = DIRECTION('',(0.,0.,1.));
#765 = PCURVE('',#275,#766);
#766 = DEFINITIONAL_REPRESENTATION('',(#767),#771);
#767 = CIRCLE('',#768,16.093476939431);
#768 = AXIS2_PLACEMENT_2D('',#769,#770);
#769 = CARTESIAN_POINT('',(94.,122.));
#770 = DIRECTION('',(1.,0.));
#771 = ( GEOMETRIC_REPRESENTATION_CONTEXT(2) 
PARAMETRIC_REPRESENTATION_CONTEXT() REPRESENTATION_CONTEXT('2D SPACE',''
  ) );
#772 = PCURVE('',#773,#778);
#773 = SPHERICAL_SURFACE('',#774,22.);
#774 = AXIS2_PLACEMENT_3D('',#775,#776,#777);
#775 = CARTESIAN_POINT('',(53.,-20.,20.));
#776 = DIRECTION('',(-0.,-0.,-1.));
#777 = DIRECTION('',(1.,0.,0.));
#778 = DEFINITIONAL_REPRESENTATION('',(#779),#810);
#779 = B_SPLINE_CURVE_WITH_KNOTS('',8,(#780,#781,#782,#783,#784,#785,
    #786,#787,#788,#789,#790,#791,#792,#793,#794,#795,#796,#797,#798,
    #799,#800,#801,#802,#803,#804,#805,#806,#807,#808,#809),
  .UNSPECIFIED.,.F.,.F.,(9,7,7,7,9),(0.,0.365740766672,0.640046341677,
    1.051504704183,1.462963066689),.UNSPECIFIED.);
#780 = CARTESIAN_POINT('',(1.570796326795,-0.820551082808));
#781 = CARTESIAN_POINT('',(1.521745988509,-0.820551082808));
#782 = CARTESIAN_POINT('',(1.472695654217,-0.817988262859));
#783 = CARTESIAN_POINT('',(1.424161170896,-0.812862663753));
#784 = CARTESIAN_POINT('',(1.376658494832,-0.805224997836));
#785 = CARTESIAN_POINT('',(1.330645192111,-0.795177550763));
#786 = CARTESIAN_POINT('',(1.28646101933,-0.782859697284));
#787 = CARTESIAN_POINT('',(1.24433650931,-0.768429294044));
#788 = CARTESIAN_POINT('',(1.174463593736,-0.739767637632));
#789 = CARTESIAN_POINT('',(1.145753943359,-0.726388495909));
#790 = CARTESIAN_POINT('',(1.118338239909,-0.711983308802));
#791 = CARTESIAN_POINT('',(1.092245101507,-0.696623794733));
#792 = CARTESIAN_POINT('',(1.067478412478,-0.680380867531));
#793 = CARTESIAN_POINT('',(1.044023798575,-0.663322748332));
#794 = CARTESIAN_POINT('',(1.021854854076,-0.645513964744));
#795 = CARTESIAN_POINT('',(0.969560487838,-0.599266600275));
#796 = CARTESIAN_POINT('',(0.940999072099,-0.569965306912));
#797 = CARTESIAN_POINT('',(0.915136661017,-0.53931536979));
#798 = CARTESIAN_POINT('',(0.891816747185,-0.507500326747));
#799 = CARTESIAN_POINT('',(0.870876206294,-0.474680742338));
#800 = CARTESIAN_POINT('',(0.852161176431,-0.440996689254));
#801 = CARTESIAN_POINT('',(0.835532709701,-0.406571888686));
#802 = CARTESIAN_POINT('',(0.806206851065,-0.336460925345));
#803 = CARTESIAN_POINT('',(0.793509505919,-0.300774771087));
#804 = CARTESIAN_POINT('',(0.782656457864,-0.264568056247));
#805 = CARTESIAN_POINT('',(0.773544989551,-0.227937427597));
#806 = CARTESIAN_POINT('',(0.76609205608,-0.190969343568));
#807 = CARTESIAN_POINT('',(0.76023463848,-0.153743001469));
#808 = CARTESIAN_POINT('',(0.755929347967,-0.116332914997));
#809 = CARTESIAN_POINT('',(0.753151280962,-7.881114207211E-02));
#810 = ( GEOMETRIC_REPRESENTATION_CONTEXT(2) 
PARAMETRIC_REPRESENTATION_CONTEXT() REPRESENTATION_CONTEXT('2D SPACE',''
  ) );
#811 = ADVANCED_FACE('',(#812),#773,.T.);
#812 = FACE_BOUND('',#813,.T.);
#813 = EDGE_LOOP('',(#814,#862,#904,#905,#927));
#814 = ORIENTED_EDGE('',*,*,#815,.F.);
#815 = EDGE_CURVE('',#816,#818,#820,.T.);
#816 = VERTEX_POINT('',#817);
#817 = CARTESIAN_POINT('',(69.,-33.225,27.28693179603));
#818 = VERTEX_POINT('',#819);
#819 = CARTESIAN_POINT('',(70.581222227138,-33.225,20.));
#820 = SURFACE_CURVE('',#821,(#826,#850),.PCURVE_S1.);
#821 = CIRCLE('',#822,17.581222227138);
#822 = AXIS2_PLACEMENT_3D('',#823,#824,#825);
#823 = CARTESIAN_POINT('',(53.,-33.225,20.));
#824 = DIRECTION('',(-0.,1.,0.));
#825 = DIRECTION('',(0.,0.,1.));
#826 = PCURVE('',#773,#827);
#827 = DEFINITIONAL_REPRESENTATION('',(#828),#849);
#828 = B_SPLINE_CURVE_WITH_KNOTS('',7,(#829,#830,#831,#832,#833,#834,
    #835,#836,#837,#838,#839,#840,#841,#842,#843,#844,#845,#846,#847,
    #848),.UNSPECIFIED.,.F.,.F.,(8,6,6,8),(0.414348675834,0.703460588574
    ,1.137128457684,1.570796326795),.UNSPECIFIED.);
#829 = CARTESIAN_POINT('',(1.079382655076,-0.820551082808));
#830 = CARTESIAN_POINT('',(1.040313772355,-0.801061935335));
#831 = CARTESIAN_POINT('',(1.003978988321,-0.779912957689));
#832 = CARTESIAN_POINT('',(0.970369338202,-0.757292427269));
#833 = CARTESIAN_POINT('',(0.939377875314,-0.733377888469));
#834 = CARTESIAN_POINT('',(0.910853839135,-0.708327440893));
#835 = CARTESIAN_POINT('',(0.884635891433,-0.682277727134));
#836 = CARTESIAN_POINT('',(0.824457213907,-0.614954959609));
#837 = CARTESIAN_POINT('',(0.793179673012,-0.572582534048));
#838 = CARTESIAN_POINT('',(0.766192851193,-0.528635136248));
#839 = CARTESIAN_POINT('',(0.74297180684,-0.483425953024));
#840 = CARTESIAN_POINT('',(0.723101479107,-0.437198731275));
#841 = CARTESIAN_POINT('',(0.706246698249,-0.390153219606));
#842 = CARTESIAN_POINT('',(0.678055904626,-0.294761795374));
#843 = CARTESIAN_POINT('',(0.666719863406,-0.246415925232));
#844 = CARTESIAN_POINT('',(0.657886290929,-0.197587956055));
#845 = CARTESIAN_POINT('',(0.651375740186,-0.148415407637));
#846 = CARTESIAN_POINT('',(0.647073416766,-9.901830093628E-02));
#847 = CARTESIAN_POINT('',(0.644922321259,-4.950916350389E-02));
#848 = CARTESIAN_POINT('',(0.644922321259,0.));
#849 = ( GEOMETRIC_REPRESENTATION_CONTEXT(2) 
PARAMETRIC_REPRESENTATION_CONTEXT() REPRESENTATION_CONTEXT('2D SPACE',''
  ) );
#850 = PCURVE('',#851,#856);
#851 = PLANE('',#852);
#852 = AXIS2_PLACEMENT_3D('',#853,#854,#855);
#853 = CARTESIAN_POINT('',(-250.,-33.225,-250.));
#854 = DIRECTION('',(-0.,1.,0.));
#855 = DIRECTION('',(0.,0.,1.));
#856 = DEFINITIONAL_REPRESENTATION('',(#857),#861);
#857 = CIRCLE('',#858,17.581222227138);
#858 = AXIS2_PLACEMENT_2D('',#859,#860);
#859 = CARTESIAN_POINT('',(270.,303.));
#860 = DIRECTION('',(1.,0.));
#861 = ( GEOMETRIC_REPRESENTATION_CONTEXT(2) 
PARAMETRIC_REPRESENTATION_CONTEXT() REPRESENTATION_CONTEXT('2D SPACE',''
  ) );
#862 = ORIENTED_EDGE('',*,*,#863,.T.);
#863 = EDGE_CURVE('',#816,#409,#864,.T.);
#864 = SURFACE_CURVE('',#865,(#870,#897),.PCURVE_S1.);
#865 = CIRCLE('',#866,15.099668870541);
#866 = AXIS2_PLACEMENT_3D('',#867,#868,#869);
#867 = CARTESIAN_POINT('',(69.,-20.,20.));
#868 = DIRECTION('',(1.,0.,-0.));
#869 = DIRECTION('',(0.,0.,1.));
#870 = PCURVE('',#773,#871);
#871 = DEFINITIONAL_REPRESENTATION('',(#872),#896);
#872 = B_SPLINE_CURVE_WITH_KNOTS('',8,(#873,#874,#875,#876,#877,#878,
    #879,#880,#881,#882,#883,#884,#885,#886,#887,#888,#889,#890,#891,
    #892,#893,#894,#895),.UNSPECIFIED.,.F.,.F.,(9,7,7,9),(0.,
    0.363958851574,0.909897128934,1.455835406294),.UNSPECIFIED.);
#873 = CARTESIAN_POINT('',(0.,-0.756456384668));
#874 = CARTESIAN_POINT('',(4.293482922862E-02,-0.756456384668));
#875 = CARTESIAN_POINT('',(8.586959204279E-02,-0.754224021424));
#876 = CARTESIAN_POINT('',(0.12842811649,-0.749759330061));
#877 = CARTESIAN_POINT('',(0.170232476523,-0.743098376962));
#878 = CARTESIAN_POINT('',(0.210942040753,-0.734313849283));
#879 = CARTESIAN_POINT('',(0.250280563107,-0.72350685942));
#880 = CARTESIAN_POINT('',(0.288046239196,-0.710795747209));
#881 = CARTESIAN_POINT('',(0.378179771676,-0.674575535743));
#882 = CARTESIAN_POINT('',(0.428407474134,-0.648845240926));
#883 = CARTESIAN_POINT('',(0.474313424108,-0.619545745106));
#884 = CARTESIAN_POINT('',(0.515753736102,-0.587151457101));
#885 = CARTESIAN_POINT('',(0.552850294732,-0.552113326664));
#886 = CARTESIAN_POINT('',(0.585811613693,-0.514828887184));
#887 = CARTESIAN_POINT('',(0.614883594274,-0.475648139082));
#888 = CARTESIAN_POINT('',(0.665726691137,-0.394106775152));
#889 = CARTESIAN_POINT('',(0.68749780814,-0.3517461585));
#890 = CARTESIAN_POINT('',(0.705857996997,-0.308102220963));
#891 = CARTESIAN_POINT('',(0.72104062145,-0.263438150992));
#892 = CARTESIAN_POINT('',(0.733239136941,-0.217981598869));
#893 = CARTESIAN_POINT('',(0.742598946169,-0.171934831556));
#894 = CARTESIAN_POINT('',(0.749219502026,-0.125484847287));
#895 = CARTESIAN_POINT('',(0.753151280962,-7.881114207211E-02));
#896 = ( GEOMETRIC_REPRESENTATION_CONTEXT(2) 
PARAMETRIC_REPRESENTATION_CONTEXT() REPRESENTATION_CONTEXT('2D SPACE',''
  ) );
#897 = PCURVE('',#424,#898);
#898 = DEFINITIONAL_REPRESENTATION('',(#899),#903);
#899 = CIRCLE('',#900,15.099668870541);
#900 = AXIS2_PLACEMENT_2D('',#901,#902);
#901 = CARTESIAN_POINT('',(94.,-15.));
#902 = DIRECTION('',(1.,0.));
#903 = ( GEOMETRIC_REPRESENTATION_CONTEXT(2) 
PARAMETRIC_REPRESENTATION_CONTEXT() REPRESENTATION_CONTEXT('2D SPACE',''
  ) );
#904 = ORIENTED_EDGE('',*,*,#758,.F.);
#905 = ORIENTED_EDGE('',*,*,#906,.T.);
#906 = EDGE_CURVE('',#738,#907,#909,.T.);
#907 = VERTEX_POINT('',#908);
#908 = CARTESIAN_POINT('',(53.,-42.,20.));
#909 = SURFACE_CURVE('',#910,(#915,#921),.PCURVE_S1.);
#910 = CIRCLE('',#911,22.);
#911 = AXIS2_PLACEMENT_3D('',#912,#913,#914);
#912 = CARTESIAN_POINT('',(53.,-20.,20.));
#913 = DIRECTION('',(1.,6.123233995737E-17,0.));
#914 = DIRECTION('',(6.123233995737E-17,-1.,0.));
#915 = PCURVE('',#773,#916);
#916 = DEFINITIONAL_REPRESENTATION('',(#917),#920);
#917 = B_SPLINE_CURVE_WITH_KNOTS('',1,(#918,#919),.UNSPECIFIED.,.F.,.F.,
  (2,2),(4.712388980385,6.28318530718),.PIECEWISE_BEZIER_KNOTS.);
#918 = CARTESIAN_POINT('',(1.570796326795,-1.570796326795));
#919 = CARTESIAN_POINT('',(1.570796326795,0.));
#920 = ( GEOMETRIC_REPRESENTATION_CONTEXT(2) 
PARAMETRIC_REPRESENTATION_CONTEXT() REPRESENTATION_CONTEXT('2D SPACE',''
  ) );
#921 = PCURVE('',#565,#922);
#922 = DEFINITIONAL_REPRESENTATION('',(#923),#926);
#923 = B_SPLINE_CURVE_WITH_KNOTS('',1,(#924,#925),.UNSPECIFIED.,.F.,.F.,
  (2,2),(4.712388980385,6.28318530718),.PIECEWISE_BEZIER_KNOTS.);
#924 = CARTESIAN_POINT('',(-1.570796326795,128.));
#925 = CARTESIAN_POINT('',(0.,128.));
#926 = ( GEOMETRIC_REPRESENTATION_CONTEXT(2) 
PARAMETRIC_REPRESENTATION_CONTEXT() REPRESENTATION_CONTEXT('2D SPACE',''
  ) );
#927 = ORIENTED_EDGE('',*,*,#928,.F.);
#928 = EDGE_CURVE('',#818,#907,#929,.T.);
#929 = SURFACE_CURVE('',#930,(#935,#942),.PCURVE_S1.);
#930 = CIRCLE('',#931,22.);
#931 = AXIS2_PLACEMENT_3D('',#932,#933,#934);
#932 = CARTESIAN_POINT('',(53.,-20.,20.));
#933 = DIRECTION('',(0.,0.,-1.));
#934 = DIRECTION('',(1.,0.,0.));
#935 = PCURVE('',#773,#936);
#936 = DEFINITIONAL_REPRESENTATION('',(#937),#941);
#937 = LINE('',#938,#939);
#938 = CARTESIAN_POINT('',(0.,0.));
#939 = VECTOR('',#940,1.);
#940 = DIRECTION('',(1.,0.));
#941 = ( GEOMETRIC_REPRESENTATION_CONTEXT(2) 
PARAMETRIC_REPRESENTATION_CONTEXT() REPRESENTATION_CONTEXT('2D SPACE',''
  ) );
#942 = PCURVE('',#943,#948);
#943 = CYLINDRICAL_SURFACE('',#944,22.);
#944 = AXIS2_PLACEMENT_3D('',#945,#946,#947);
#945 = CARTESIAN_POINT('',(53.,-20.,-70.));
#946 = DIRECTION('',(0.,0.,1.));
#947 = DIRECTION('',(1.,0.,-0.));
#948 = DEFINITIONAL_REPRESENTATION('',(#949),#953);
#949 = LINE('',#950,#951);
#950 = CARTESIAN_POINT('',(-0.,90.));
#951 = VECTOR('',#952,1.);
#952 = DIRECTION('',(-1.,0.));
#953 = ( GEOMETRIC_REPRESENTATION_CONTEXT(2) 
PARAMETRIC_REPRESENTATION_CONTEXT() REPRESENTATION_CONTEXT('2D SPACE',''
  ) );
#954 = ADVANCED_FACE('',(#955),#943,.T.);
#955 = FACE_BOUND('',#956,.F.);
#956 = EDGE_LOOP('',(#957,#978,#1002,#1023));
#957 = ORIENTED_EDGE('',*,*,#958,.F.);
#958 = EDGE_CURVE('',#959,#818,#961,.T.);
#959 = VERTEX_POINT('',#960);
#960 = CARTESIAN_POINT('',(70.581222227138,-33.225,-48.));
#961 = SURFACE_CURVE('',#962,(#966,#972),.PCURVE_S1.);
#962 = LINE('',#963,#964);
#963 = CARTESIAN_POINT('',(70.581222227138,-33.225,-70.));
#964 = VECTOR('',#965,1.);
#965 = DIRECTION('',(0.,0.,1.));
#966 = PCURVE('',#943,#967);
#967 = DEFINITIONAL_REPRESENTATION('',(#968),#971);
#968 = B_SPLINE_CURVE_WITH_KNOTS('',1,(#969,#970),.UNSPECIFIED.,.F.,.F.,
  (2,2),(21.9999994,90.0000006),.PIECEWISE_BEZIER_KNOTS.);
#969 = CARTESIAN_POINT('',(-0.644922321259,21.9999994));
#970 = CARTESIAN_POINT('',(-0.644922321259,90.0000006));
#971 = ( GEOMETRIC_REPRESENTATION_CONTEXT(2) 
PARAMETRIC_REPRESENTATION_CONTEXT() REPRESENTATION_CONTEXT('2D SPACE',''
  ) );
#972 = PCURVE('',#851,#973);
#973 = DEFINITIONAL_REPRESENTATION('',(#974),#977);
#974 = B_SPLINE_CURVE_WITH_KNOTS('',1,(#975,#976),.UNSPECIFIED.,.F.,.F.,
  (2,2),(21.9999994,90.0000006),.PIECEWISE_BEZIER_KNOTS.);
#975 = CARTESIAN_POINT('',(201.9999994,320.58122222713));
#976 = CARTESIAN_POINT('',(270.0000006,320.58122222713));
#977 = ( GEOMETRIC_REPRESENTATION_CONTEXT(2) 
PARAMETRIC_REPRESENTATION_CONTEXT() REPRESENTATION_CONTEXT('2D SPACE',''
  ) );
#978 = ORIENTED_EDGE('',*,*,#979,.T.);
#979 = EDGE_CURVE('',#959,#980,#982,.T.);
#980 = VERTEX_POINT('',#981);
#981 = CARTESIAN_POINT('',(53.,-42.,-48.));
#982 = SURFACE_CURVE('',#983,(#988,#995),.PCURVE_S1.);
#983 = CIRCLE('',#984,22.);
#984 = AXIS2_PLACEMENT_3D('',#985,#986,#987);
#985 = CARTESIAN_POINT('',(53.,-20.,-48.));
#986 = DIRECTION('',(0.,-0.,-1.));
#987 = DIRECTION('',(1.,0.,-0.));
#988 = PCURVE('',#943,#989);
#989 = DEFINITIONAL_REPRESENTATION('',(#990),#994);
#990 = LINE('',#991,#992);
#991 = CARTESIAN_POINT('',(-0.,22.));
#992 = VECTOR('',#993,1.);
#993 = DIRECTION('',(-1.,0.));
#994 = ( GEOMETRIC_REPRESENTATION_CONTEXT(2) 
PARAMETRIC_REPRESENTATION_CONTEXT() REPRESENTATION_CONTEXT('2D SPACE',''
  ) );
#995 = PCURVE('',#453,#996);
#996 = DEFINITIONAL_REPRESENTATION('',(#997),#1001);
#997 = LINE('',#998,#999);
#998 = CARTESIAN_POINT('',(-0.,0.));
#999 = VECTOR('',#1000,1.);
#1000 = DIRECTION('',(-1.,0.));
#1001 = ( GEOMETRIC_REPRESENTATION_CONTEXT(2) 
PARAMETRIC_REPRESENTATION_CONTEXT() REPRESENTATION_CONTEXT('2D SPACE',''
  ) );
#1002 = ORIENTED_EDGE('',*,*,#1003,.T.);
#1003 = EDGE_CURVE('',#980,#907,#1004,.T.);
#1004 = SURFACE_CURVE('',#1005,(#1009,#1016),.PCURVE_S1.);
#1005 = LINE('',#1006,#1007);
#1006 = CARTESIAN_POINT('',(53.,-42.,-70.));
#1007 = VECTOR('',#1008,1.);
#1008 = DIRECTION('',(0.,0.,1.));
#1009 = PCURVE('',#943,#1010);
#1010 = DEFINITIONAL_REPRESENTATION('',(#1011),#1015);
#1011 = LINE('',#1012,#1013);
#1012 = CARTESIAN_POINT('',(-1.570796326795,0.));
#1013 = VECTOR('',#1014,1.);
#1014 = DIRECTION('',(-0.,1.));
#1015 = ( GEOMETRIC_REPRESENTATION_CONTEXT(2) 
PARAMETRIC_REPRESENTATION_CONTEXT() REPRESENTATION_CONTEXT('2D SPACE',''
  ) );
#1016 = PCURVE('',#99,#1017);
#1017 = DEFINITIONAL_REPRESENTATION('',(#1018),#1022);
#1018 = LINE('',#1019,#1020);
#1019 = CARTESIAN_POINT('',(0.,128.));
#1020 = VECTOR('',#1021,1.);
#1021 = DIRECTION('',(1.,0.));
#1022 = ( GEOMETRIC_REPRESENTATION_CONTEXT(2) 
PARAMETRIC_REPRESENTATION_CONTEXT() REPRESENTATION_CONTEXT('2D SPACE',''
  ) );
#1023 = ORIENTED_EDGE('',*,*,#928,.F.);
#1024 = ADVANCED_FACE('',(#1025),#851,.T.);
#1025 = FACE_BOUND('',#1026,.T.);
#1026 = EDGE_LOOP('',(#1027,#1028,#1069,#1088));
#1027 = ORIENTED_EDGE('',*,*,#958,.F.);
#1028 = ORIENTED_EDGE('',*,*,#1029,.T.);
#1029 = EDGE_CURVE('',#959,#1030,#1032,.T.);
#1030 = VERTEX_POINT('',#1031);
#1031 = CARTESIAN_POINT('',(69.,-33.225,-55.28693179603));
#1032 = SURFACE_CURVE('',#1033,(#1038,#1045),.PCURVE_S1.);
#1033 = CIRCLE('',#1034,17.581222227138);
#1034 = AXIS2_PLACEMENT_3D('',#1035,#1036,#1037);
#1035 = CARTESIAN_POINT('',(53.,-33.225,-48.));
#1036 = DIRECTION('',(-0.,1.,0.));
#1037 = DIRECTION('',(0.,0.,1.));
#1038 = PCURVE('',#851,#1039);
#1039 = DEFINITIONAL_REPRESENTATION('',(#1040),#1044);
#1040 = CIRCLE('',#1041,17.581222227138);
#1041 = AXIS2_PLACEMENT_2D('',#1042,#1043);
#1042 = CARTESIAN_POINT('',(202.,303.));
#1043 = DIRECTION('',(1.,0.));
#1044 = ( GEOMETRIC_REPRESENTATION_CONTEXT(2) 
PARAMETRIC_REPRESENTATION_CONTEXT() REPRESENTATION_CONTEXT('2D SPACE',''
  ) );
#1045 = PCURVE('',#453,#1046);
#1046 = DEFINITIONAL_REPRESENTATION('',(#1047),#1068);
#1047 = B_SPLINE_CURVE_WITH_KNOTS('',7,(#1048,#1049,#1050,#1051,#1052,
    #1053,#1054,#1055,#1056,#1057,#1058,#1059,#1060,#1061,#1062,#1063,
    #1064,#1065,#1066,#1067),.UNSPECIFIED.,.F.,.F.,(8,6,6,8),(
    1.570796326795,2.149020152275,2.438132065016,2.727243977756),
  .UNSPECIFIED.);
#1048 = CARTESIAN_POINT('',(-0.644922321259,0.));
#1049 = CARTESIAN_POINT('',(-0.644922321259,-6.601221800519E-02));
#1050 = CARTESIAN_POINT('',(-0.648746615809,-0.132024435545));
#1051 = CARTESIAN_POINT('',(-0.656394570739,-0.197770801122));
#1052 = CARTESIAN_POINT('',(-0.668049511023,-0.26298547233));
#1053 = CARTESIAN_POINT('',(-0.68406820533,-0.327367344852));
#1054 = CARTESIAN_POINT('',(-0.705045225711,-0.390545439198));
#1055 = CARTESIAN_POINT('',(-0.745245806273,-0.482723694631));
#1056 = CARTESIAN_POINT('',(-0.760101764075,-0.51301830731));
#1057 = CARTESIAN_POINT('',(-0.776521779471,-0.542816141727));
#1058 = CARTESIAN_POINT('',(-0.794629785312,-0.572042595011));
#1059 = CARTESIAN_POINT('',(-0.814568021158,-0.600610954152));
#1060 = CARTESIAN_POINT('',(-0.836492949412,-0.628419513114));
#1061 = CARTESIAN_POINT('',(-0.884635891433,-0.682277727134));
#1062 = CARTESIAN_POINT('',(-0.910853839135,-0.708327440893));
#1063 = CARTESIAN_POINT('',(-0.939377875314,-0.733377888469));
#1064 = CARTESIAN_POINT('',(-0.970369338202,-0.757292427269));
#1065 = CARTESIAN_POINT('',(-1.003978988321,-0.779912957689));
#1066 = CARTESIAN_POINT('',(-1.040313772355,-0.801061935335));
#1067 = CARTESIAN_POINT('',(-1.079382655076,-0.820551082808));
#1068 = ( GEOMETRIC_REPRESENTATION_CONTEXT(2) 
PARAMETRIC_REPRESENTATION_CONTEXT() REPRESENTATION_CONTEXT('2D SPACE',''
  ) );
#1069 = ORIENTED_EDGE('',*,*,#1070,.T.);
#1070 = EDGE_CURVE('',#1030,#816,#1071,.T.);
#1071 = SURFACE_CURVE('',#1072,(#1076,#1082),.PCURVE_S1.);
#1072 = LINE('',#1073,#1074);
#1073 = CARTESIAN_POINT('',(69.,-33.225,-162.));
#1074 = VECTOR('',#1075,1.);
#1075 = DIRECTION('',(0.,0.,1.));
#1076 = PCURVE('',#851,#1077);
#1077 = DEFINITIONAL_REPRESENTATION('',(#1078),#1081);
#1078 = B_SPLINE_CURVE_WITH_KNOTS('',1,(#1079,#1080),.UNSPECIFIED.,.F.,
  .F.,(2,2),(98.900331129458,197.09966887054),.PIECEWISE_BEZIER_KNOTS.);
#1079 = CARTESIAN_POINT('',(186.90033112945,319.));
#1080 = CARTESIAN_POINT('',(285.09966887054,319.));
#1081 = ( GEOMETRIC_REPRESENTATION_CONTEXT(2) 
PARAMETRIC_REPRESENTATION_CONTEXT() REPRESENTATION_CONTEXT('2D SPACE',''
  ) );
#1082 = PCURVE('',#424,#1083);
#1083 = DEFINITIONAL_REPRESENTATION('',(#1084),#1087);
#1084 = B_SPLINE_CURVE_WITH_KNOTS('',1,(#1085,#1086),.UNSPECIFIED.,.F.,
  .F.,(2,2),(98.900331129458,197.09966887054),.PIECEWISE_BEZIER_KNOTS.);
#1085 = CARTESIAN_POINT('',(10.900331129458,-1.775));
#1086 = CARTESIAN_POINT('',(109.09966887054,-1.775));
#1087 = ( GEOMETRIC_REPRESENTATION_CONTEXT(2) 
PARAMETRIC_REPRESENTATION_CONTEXT() REPRESENTATION_CONTEXT('2D SPACE',''
  ) );
#1088 = ORIENTED_EDGE('',*,*,#815,.T.);
#1089 = ADVANCED_FACE('',(#1090),#650,.F.);
#1090 = FACE_BOUND('',#1091,.F.);
#1091 = EDGE_LOOP('',(#1092,#1182));
#1092 = ORIENTED_EDGE('',*,*,#1093,.F.);
#1093 = EDGE_CURVE('',#551,#577,#1094,.T.);
#1094 = SURFACE_CURVE('',#1095,(#1122,#1152),.PCURVE_S1.);
#1095 = B_SPLINE_CURVE_WITH_KNOTS('',7,(#1096,#1097,#1098,#1099,#1100,
    #1101,#1102,#1103,#1104,#1105,#1106,#1107,#1108,#1109,#1110,#1111,
    #1112,#1113,#1114,#1115,#1116,#1117,#1118,#1119,#1120,#1121),
  .UNSPECIFIED.,.F.,.F.,(8,6,6,6,8),(0.,0.251467585184,0.501821746324,
    0.749641044321,1.),.UNSPECIFIED.);
#1096 = CARTESIAN_POINT('',(-32.04526869776,-35.,36.093476939431));
#1097 = CARTESIAN_POINT('',(-29.78663871714,-35.56677144371,
    35.565214980393));
#1098 = CARTESIAN_POINT('',(-27.51671784898,-36.06337504139,
    35.058836772903));
#1099 = CARTESIAN_POINT('',(-25.23691253918,-36.49694179632,
    34.581088211062));
#1100 = CARTESIAN_POINT('',(-22.94848999599,-36.87325565587,
    34.13766454408));
#1101 = CARTESIAN_POINT('',(-20.65259555015,-37.19730802394,
    33.733542117408));
#1102 = CARTESIAN_POINT('',(-18.35025577669,-37.47329610858,
    33.37294951909));
#1103 = CARTESIAN_POINT('',(-13.74472553991,-37.93491317099,
    32.747133149052));
#1104 = CARTESIAN_POINT('',(-11.44166554144,-38.12092848759,
    32.481505176434));
#1105 = CARTESIAN_POINT('',(-9.134232628742,-38.26600504583,
    32.26588841112));
#1106 = CARTESIAN_POINT('',(-6.823485448917,-38.37269420195,
    32.102952497497));
#1107 = CARTESIAN_POINT('',(-4.510512558615,-38.44274038402,
    31.994537847787));
#1108 = CARTESIAN_POINT('',(-2.196434437137,-38.47699579368,
    31.941550766023));
#1109 = CARTESIAN_POINT('',(2.408196315308,-38.47389145093,
    31.946352696535));
#1110 = CARTESIAN_POINT('',(4.698768646842,-38.43725328016,
    32.003025536341));
#1111 = CARTESIAN_POINT('',(6.98819561436,-38.36549528916,
    32.113956883974));
#1112 = CARTESIAN_POINT('',(9.275391529914,-38.25774934851,
    32.278224919836));
#1113 = CARTESIAN_POINT('',(11.559301575089,-38.11229264503,
    32.494013588092));
#1114 = CARTESIAN_POINT('',(13.838899897854,-37.92662874382,
    32.758712774734));
#1115 = CARTESIAN_POINT('',(18.410781533552,-37.46602625355,
    33.382442285078));
#1116 = CARTESIAN_POINT('',(20.702875273244,-37.19020050423,
    33.742400666611));
#1117 = CARTESIAN_POINT('',(22.988568291376,-36.86665765587,
    34.145435036919));
#1118 = CARTESIAN_POINT('',(25.266846481966,-36.49124478258,
    34.587363122726));
#1119 = CARTESIAN_POINT('',(27.536579049841,-36.0590282074,
    35.063268011529));
#1120 = CARTESIAN_POINT('',(29.796515470217,-35.56429301137,
    35.567525014782));
#1121 = CARTESIAN_POINT('',(32.045268697767,-35.,36.093476939431));
#1122 = PCURVE('',#650,#1123);
#1123 = DEFINITIONAL_REPRESENTATION('',(#1124),#1151);
#1124 = B_SPLINE_CURVE_WITH_KNOTS('',7,(#1125,#1126,#1127,#1128,#1129,
    #1130,#1131,#1132,#1133,#1134,#1135,#1136,#1137,#1138,#1139,#1140,
    #1141,#1142,#1143,#1144,#1145,#1146,#1147,#1148,#1149,#1150),
  .UNSPECIFIED.,.F.,.F.,(8,6,6,6,8),(0.,0.251467585184,0.501821746324,
    0.749641044321,1.),.UNSPECIFIED.);
#1125 = CARTESIAN_POINT('',(4.214266715725,-0.57184708244));
#1126 = CARTESIAN_POINT('',(4.256606626952,-0.580978514478));
#1127 = CARTESIAN_POINT('',(4.297886254807,-0.589783937264));
#1128 = CARTESIAN_POINT('',(4.338327129828,-0.598142302391));
#1129 = CARTESIAN_POINT('',(4.378081161286,-0.605946205457));
#1130 = CARTESIAN_POINT('',(4.417257890313,-0.613096934244));
#1131 = CARTESIAN_POINT('',(4.455930860722,-0.619506863763));
#1132 = CARTESIAN_POINT('',(4.532196381754,-0.63067289582));
#1133 = CARTESIAN_POINT('',(4.56979159916,-0.63543599768));
#1134 = CARTESIAN_POINT('',(4.606979162961,-0.639318622462));
#1135 = CARTESIAN_POINT('',(4.643776991475,-0.642261436101));
#1136 = CARTESIAN_POINT('',(4.680184372335,-0.644222335651));
#1137 = CARTESIAN_POINT('',(4.716191998314,-0.645180654715));
#1138 = CARTESIAN_POINT('',(4.787030029257,-0.645093807404));
#1139 = CARTESIAN_POINT('',(4.821868944685,-0.644068828087));
#1140 = CARTESIAN_POINT('',(4.856299617135,-0.642062664378));
#1141 = CARTESIAN_POINT('',(4.890315101839,-0.639096342449));
#1142 = CARTESIAN_POINT('',(4.923918621848,-0.635211362137));
#1143 = CARTESIAN_POINT('',(4.957129217044,-0.630465675315));
#1144 = CARTESIAN_POINT('',(5.02317606378,-0.619338129094));
#1145 = CARTESIAN_POINT('',(5.056003831914,-0.612940195554));
#1146 = CARTESIAN_POINT('',(5.088508131088,-0.605809457139));
#1147 = CARTESIAN_POINT('',(5.120746432792,-0.598032524379));
#1148 = CARTESIAN_POINT('',(5.152797029982,-0.589706883603));
#1149 = CARTESIAN_POINT('',(5.184759257287,-0.580938583679));
#1150 = CARTESIAN_POINT('',(5.21676344922,-0.57184708244));
#1151 = ( GEOMETRIC_REPRESENTATION_CONTEXT(2) 
PARAMETRIC_REPRESENTATION_CONTEXT() REPRESENTATION_CONTEXT('2D SPACE',''
  ) );
#1152 = PCURVE('',#565,#1153);
#1153 = DEFINITIONAL_REPRESENTATION('',(#1154),#1181);
#1154 = B_SPLINE_CURVE_WITH_KNOTS('',7,(#1155,#1156,#1157,#1158,#1159,
    #1160,#1161,#1162,#1163,#1164,#1165,#1166,#1167,#1168,#1169,#1170,
    #1171,#1172,#1173,#1174,#1175,#1176,#1177,#1178,#1179,#1180),
  .UNSPECIFIED.,.F.,.F.,(8,6,6,6,8),(0.,0.251467585184,0.501821746324,
    0.749641044321,1.),.UNSPECIFIED.);
#1155 = CARTESIAN_POINT('',(-0.820551082808,42.954731302233));
#1156 = CARTESIAN_POINT('',(-0.785333618872,45.213361282857));
#1157 = CARTESIAN_POINT('',(-0.753127507621,47.483282151019));
#1158 = CARTESIAN_POINT('',(-0.723833459118,49.763087460812));
#1159 = CARTESIAN_POINT('',(-0.697418829416,52.051510004004));
#1160 = CARTESIAN_POINT('',(-0.673883352524,54.347404449846));
#1161 = CARTESIAN_POINT('',(-0.653246220857,56.649744223307));
#1162 = CARTESIAN_POINT('',(-0.617898583633,61.255274460082));
#1163 = CARTESIAN_POINT('',(-0.60316288073,63.558334458551));
#1164 = CARTESIAN_POINT('',(-0.591352237523,65.865767371258));
#1165 = CARTESIAN_POINT('',(-0.582499745513,68.176514551083));
#1166 = CARTESIAN_POINT('',(-0.576632727653,70.489487441385));
#1167 = CARTESIAN_POINT('',(-0.573764742509,72.803565562863));
#1168 = CARTESIAN_POINT('',(-0.574024651427,77.408196315308));
#1169 = CARTESIAN_POINT('',(-0.577092131554,79.698768646842));
#1170 = CARTESIAN_POINT('',(-0.583097461496,81.98819561436));
#1171 = CARTESIAN_POINT('',(-0.592026881478,84.275391529913));
#1172 = CARTESIAN_POINT('',(-0.603853639639,86.559301575089));
#1173 = CARTESIAN_POINT('',(-0.618545692722,88.838899897854));
#1174 = CARTESIAN_POINT('',(-0.653789622981,93.410781533552));
#1175 = CARTESIAN_POINT('',(-0.674399377966,95.702875273244));
#1176 = CARTESIAN_POINT('',(-0.697881821011,97.988568291375));
#1177 = CARTESIAN_POINT('',(-0.724218291329,100.26684648196));
#1178 = CARTESIAN_POINT('',(-0.753409376108,102.53657904984));
#1179 = CARTESIAN_POINT('',(-0.785487621165,104.79651547021));
#1180 = CARTESIAN_POINT('',(-0.820551082808,107.04526869776));
#1181 = ( GEOMETRIC_REPRESENTATION_CONTEXT(2) 
PARAMETRIC_REPRESENTATION_CONTEXT() REPRESENTATION_CONTEXT('2D SPACE',''
  ) );
#1182 = ORIENTED_EDGE('',*,*,#576,.T.);
#1183 = ADVANCED_FACE('',(#1184),#565,.T.);
#1184 = FACE_BOUND('',#1185,.F.);
#1185 = EDGE_LOOP('',(#1186,#1206,#1207,#1208,#1209,#1210));
#1186 = ORIENTED_EDGE('',*,*,#1187,.F.);
#1187 = EDGE_CURVE('',#507,#84,#1188,.T.);
#1188 = SURFACE_CURVE('',#1189,(#1194,#1200),.PCURVE_S1.);
#1189 = CIRCLE('',#1190,22.);
#1190 = AXIS2_PLACEMENT_3D('',#1191,#1192,#1193);
#1191 = CARTESIAN_POINT('',(-53.,-20.,20.));
#1192 = DIRECTION('',(1.,-6.123233995737E-17,0.));
#1193 = DIRECTION('',(-6.123233995737E-17,-1.,0.));
#1194 = PCURVE('',#565,#1195);
#1195 = DEFINITIONAL_REPRESENTATION('',(#1196),#1199);
#1196 = B_SPLINE_CURVE_WITH_KNOTS('',1,(#1197,#1198),.UNSPECIFIED.,.F.,
  .F.,(2,2),(4.712388980385,6.28318530718),.PIECEWISE_BEZIER_KNOTS.);
#1197 = CARTESIAN_POINT('',(-1.570796326795,22.));
#1198 = CARTESIAN_POINT('',(0.,22.));
#1199 = ( GEOMETRIC_REPRESENTATION_CONTEXT(2) 
PARAMETRIC_REPRESENTATION_CONTEXT() REPRESENTATION_CONTEXT('2D SPACE',''
  ) );
#1200 = PCURVE('',#126,#1201);
#1201 = DEFINITIONAL_REPRESENTATION('',(#1202),#1205);
#1202 = B_SPLINE_CURVE_WITH_KNOTS('',1,(#1203,#1204),.UNSPECIFIED.,.F.,
  .F.,(2,2),(4.712388980385,6.28318530718),.PIECEWISE_BEZIER_KNOTS.);
#1203 = CARTESIAN_POINT('',(-1.570796326795,-1.570796326795));
#1204 = CARTESIAN_POINT('',(-1.570796326795,0.));
#1205 = ( GEOMETRIC_REPRESENTATION_CONTEXT(2) 
PARAMETRIC_REPRESENTATION_CONTEXT() REPRESENTATION_CONTEXT('2D SPACE',''
  ) );
#1206 = ORIENTED_EDGE('',*,*,#550,.T.);
#1207 = ORIENTED_EDGE('',*,*,#1093,.T.);
#1208 = ORIENTED_EDGE('',*,*,#737,.T.);
#1209 = ORIENTED_EDGE('',*,*,#906,.T.);
#1210 = ORIENTED_EDGE('',*,*,#1211,.F.);
#1211 = EDGE_CURVE('',#84,#907,#1212,.T.);
#1212 = SURFACE_CURVE('',#1213,(#1217,#1224),.PCURVE_S1.);
#1213 = LINE('',#1214,#1215);
#1214 = CARTESIAN_POINT('',(-75.,-42.,20.));
#1215 = VECTOR('',#1216,1.);
#1216 = DIRECTION('',(1.,0.,-0.));
#1217 = PCURVE('',#565,#1218);
#1218 = DEFINITIONAL_REPRESENTATION('',(#1219),#1223);
#1219 = LINE('',#1220,#1221);
#1220 = CARTESIAN_POINT('',(-0.,0.));
#1221 = VECTOR('',#1222,1.);
#1222 = DIRECTION('',(-0.,1.));
#1223 = ( GEOMETRIC_REPRESENTATION_CONTEXT(2) 
PARAMETRIC_REPRESENTATION_CONTEXT() REPRESENTATION_CONTEXT('2D SPACE',''
  ) );
#1224 = PCURVE('',#99,#1225);
#1225 = DEFINITIONAL_REPRESENTATION('',(#1226),#1230);
#1226 = LINE('',#1227,#1228);
#1227 = CARTESIAN_POINT('',(90.,0.));
#1228 = VECTOR('',#1229,1.);
#1229 = DIRECTION('',(0.,1.));
#1230 = ( GEOMETRIC_REPRESENTATION_CONTEXT(2) 
PARAMETRIC_REPRESENTATION_CONTEXT() REPRESENTATION_CONTEXT('2D SPACE',''
  ) );
#1231 = ADVANCED_FACE('',(#1232),#453,.T.);
#1232 = FACE_BOUND('',#1233,.F.);
#1233 = EDGE_LOOP('',(#1234,#1235,#1277,#1278,#1298));
#1234 = ORIENTED_EDGE('',*,*,#1029,.T.);
#1235 = ORIENTED_EDGE('',*,*,#1236,.F.);
#1236 = EDGE_CURVE('',#407,#1030,#1237,.T.);
#1237 = SURFACE_CURVE('',#1238,(#1243,#1270),.PCURVE_S1.);
#1238 = CIRCLE('',#1239,15.099668870541);
#1239 = AXIS2_PLACEMENT_3D('',#1240,#1241,#1242);
#1240 = CARTESIAN_POINT('',(69.,-20.,-48.));
#1241 = DIRECTION('',(1.,0.,-0.));
#1242 = DIRECTION('',(0.,0.,1.));
#1243 = PCURVE('',#453,#1244);
#1244 = DEFINITIONAL_REPRESENTATION('',(#1245),#1269);
#1245 = B_SPLINE_CURVE_WITH_KNOTS('',8,(#1246,#1247,#1248,#1249,#1250,
    #1251,#1252,#1253,#1254,#1255,#1256,#1257,#1258,#1259,#1260,#1261,
    #1262,#1263,#1264,#1265,#1266,#1267,#1268),.UNSPECIFIED.,.F.,.F.,(9,
    7,7,9),(1.685757247296,2.413674950443,2.777633802016,3.14159265359),
  .UNSPECIFIED.);
#1246 = CARTESIAN_POINT('',(-0.753151280962,-7.881114207211E-02));
#1247 = CARTESIAN_POINT('',(-0.747908909047,-0.141042749025));
#1248 = CARTESIAN_POINT('',(-0.737886539608,-0.20287667558));
#1249 = CARTESIAN_POINT('',(-0.72296405391,-0.263887045705));
#1250 = CARTESIAN_POINT('',(-0.702869095131,-0.323626334693));
#1251 = CARTESIAN_POINT('',(-0.677179400885,-0.381584701388));
#1252 = CARTESIAN_POINT('',(-0.645331819001,-0.43716170254));
#1253 = CARTESIAN_POINT('',(-0.606646853494,-0.489594960332));
#1254 = CARTESIAN_POINT('',(-0.537676636626,-0.562170760061));
#1255 = CARTESIAN_POINT('',(-0.512862781458,-0.585350355839));
#1256 = CARTESIAN_POINT('',(-0.486167728205,-0.60740440877));
#1257 = CARTESIAN_POINT('',(-0.457548322105,-0.628210932464));
#1258 = CARTESIAN_POINT('',(-0.426984228794,-0.647639623112));
#1259 = CARTESIAN_POINT('',(-0.394494300611,-0.665554527311));
#1260 = CARTESIAN_POINT('',(-0.36015306518,-0.681819578036));
#1261 = CARTESIAN_POINT('',(-0.288046239196,-0.710795747209));
#1262 = CARTESIAN_POINT('',(-0.250280563107,-0.72350685942));
#1263 = CARTESIAN_POINT('',(-0.210942040753,-0.734313849282));
#1264 = CARTESIAN_POINT('',(-0.170232476523,-0.743098376962));
#1265 = CARTESIAN_POINT('',(-0.12842811649,-0.749759330062));
#1266 = CARTESIAN_POINT('',(-8.586959204277E-02,-0.754224021424));
#1267 = CARTESIAN_POINT('',(-4.293482922862E-02,-0.756456384668));
#1268 = CARTESIAN_POINT('',(-2.22044604925E-16,-0.756456384668));
#1269 = ( GEOMETRIC_REPRESENTATION_CONTEXT(2) 
PARAMETRIC_REPRESENTATION_CONTEXT() REPRESENTATION_CONTEXT('2D SPACE',''
  ) );
#1270 = PCURVE('',#424,#1271);
#1271 = DEFINITIONAL_REPRESENTATION('',(#1272),#1276);
#1272 = CIRCLE('',#1273,15.099668870541);
#1273 = AXIS2_PLACEMENT_2D('',#1274,#1275);
#1274 = CARTESIAN_POINT('',(26.,-15.));
#1275 = DIRECTION('',(1.,0.));
#1276 = ( GEOMETRIC_REPRESENTATION_CONTEXT(2) 
PARAMETRIC_REPRESENTATION_CONTEXT() REPRESENTATION_CONTEXT('2D SPACE',''
  ) );
#1277 = ORIENTED_EDGE('',*,*,#436,.T.);
#1278 = ORIENTED_EDGE('',*,*,#1279,.T.);
#1279 = EDGE_CURVE('',#437,#980,#1280,.T.);
#1280 = SURFACE_CURVE('',#1281,(#1286,#1292),.PCURVE_S1.);
#1281 = CIRCLE('',#1282,22.);
#1282 = AXIS2_PLACEMENT_3D('',#1283,#1284,#1285);
#1283 = CARTESIAN_POINT('',(53.,-20.,-48.));
#1284 = DIRECTION('',(-1.,-6.123233995737E-17,0.));
#1285 = DIRECTION('',(6.123233995737E-17,-1.,-0.));
#1286 = PCURVE('',#453,#1287);
#1287 = DEFINITIONAL_REPRESENTATION('',(#1288),#1291);
#1288 = B_SPLINE_CURVE_WITH_KNOTS('',1,(#1289,#1290),.UNSPECIFIED.,.F.,
  .F.,(2,2),(4.712388980385,6.28318530718),.PIECEWISE_BEZIER_KNOTS.);
#1289 = CARTESIAN_POINT('',(-1.570796326795,-1.570796326795));
#1290 = CARTESIAN_POINT('',(-1.570796326795,0.));
#1291 = ( GEOMETRIC_REPRESENTATION_CONTEXT(2) 
PARAMETRIC_REPRESENTATION_CONTEXT() REPRESENTATION_CONTEXT('2D SPACE',''
  ) );
#1292 = PCURVE('',#301,#1293);
#1293 = DEFINITIONAL_REPRESENTATION('',(#1294),#1297);
#1294 = B_SPLINE_CURVE_WITH_KNOTS('',1,(#1295,#1296),.UNSPECIFIED.,.F.,
  .F.,(2,2),(4.712388980385,6.28318530718),.PIECEWISE_BEZIER_KNOTS.);
#1295 = CARTESIAN_POINT('',(1.570796326795,128.));
#1296 = CARTESIAN_POINT('',(0.,128.));
#1297 = ( GEOMETRIC_REPRESENTATION_CONTEXT(2) 
PARAMETRIC_REPRESENTATION_CONTEXT() REPRESENTATION_CONTEXT('2D SPACE',''
  ) );
#1298 = ORIENTED_EDGE('',*,*,#979,.F.);
#1299 = ADVANCED_FACE('',(#1300),#424,.F.);
#1300 = FACE_BOUND('',#1301,.F.);
#1301 = EDGE_LOOP('',(#1302,#1303,#1304,#1305));
#1302 = ORIENTED_EDGE('',*,*,#406,.F.);
#1303 = ORIENTED_EDGE('',*,*,#1236,.T.);
#1304 = ORIENTED_EDGE('',*,*,#1070,.T.);
#1305 = ORIENTED_EDGE('',*,*,#863,.T.);
#1306 = ADVANCED_FACE('',(#1307),#301,.T.);
#1307 = FACE_BOUND('',#1308,.T.);
#1308 = EDGE_LOOP('',(#1309,#1310,#1311,#1312));
#1309 = ORIENTED_EDGE('',*,*,#287,.F.);
#1310 = ORIENTED_EDGE('',*,*,#485,.T.);
#1311 = ORIENTED_EDGE('',*,*,#1279,.T.);
#1312 = ORIENTED_EDGE('',*,*,#1313,.F.);
#1313 = EDGE_CURVE('',#55,#980,#1314,.T.);
#1314 = SURFACE_CURVE('',#1315,(#1319,#1326),.PCURVE_S1.);
#1315 = LINE('',#1316,#1317);
#1316 = CARTESIAN_POINT('',(-75.,-42.,-48.));
#1317 = VECTOR('',#1318,1.);
#1318 = DIRECTION('',(1.,0.,-0.));
#1319 = PCURVE('',#301,#1320);
#1320 = DEFINITIONAL_REPRESENTATION('',(#1321),#1325);
#1321 = LINE('',#1322,#1323);
#1322 = CARTESIAN_POINT('',(0.,0.));
#1323 = VECTOR('',#1324,1.);
#1324 = DIRECTION('',(0.,1.));
#1325 = ( GEOMETRIC_REPRESENTATION_CONTEXT(2) 
PARAMETRIC_REPRESENTATION_CONTEXT() REPRESENTATION_CONTEXT('2D SPACE',''
  ) );
#1326 = PCURVE('',#99,#1327);
#1327 = DEFINITIONAL_REPRESENTATION('',(#1328),#1332);
#1328 = LINE('',#1329,#1330);
#1329 = CARTESIAN_POINT('',(22.,0.));
#1330 = VECTOR('',#1331,1.);
#1331 = DIRECTION('',(0.,1.));
#1332 = ( GEOMETRIC_REPRESENTATION_CONTEXT(2) 
PARAMETRIC_REPRESENTATION_CONTEXT() REPRESENTATION_CONTEXT('2D SPACE',''
  ) );
#1333 = ADVANCED_FACE('',(#1334),#99,.F.);
#1334 = FACE_BOUND('',#1335,.F.);
#1335 = EDGE_LOOP('',(#1336,#1337,#1338,#1339));
#1336 = ORIENTED_EDGE('',*,*,#83,.T.);
#1337 = ORIENTED_EDGE('',*,*,#1211,.T.);
#1338 = ORIENTED_EDGE('',*,*,#1003,.F.);
#1339 = ORIENTED_EDGE('',*,*,#1313,.F.);
#1340 = ADVANCED_FACE('',(#1341),#126,.T.);
#1341 = FACE_BOUND('',#1342,.F.);
#1342 = EDGE_LOOP('',(#1343,#1382,#1383,#1384,#1385));
#1343 = ORIENTED_EDGE('',*,*,#1344,.T.);
#1344 = EDGE_CURVE('',#24,#341,#1345,.T.);
#1345 = SURFACE_CURVE('',#1346,(#1351,#1375),.PCURVE_S1.);
#1346 = CIRCLE('',#1347,17.581222227138);
#1347 = AXIS2_PLACEMENT_3D('',#1348,#1349,#1350);
#1348 = CARTESIAN_POINT('',(-53.,-33.225,20.));
#1349 = DIRECTION('',(-0.,1.,0.));
#1350 = DIRECTION('',(0.,0.,1.));
#1351 = PCURVE('',#126,#1352);
#1352 = DEFINITIONAL_REPRESENTATION('',(#1353),#1374);
#1353 = B_SPLINE_CURVE_WITH_KNOTS('',7,(#1354,#1355,#1356,#1357,#1358,
    #1359,#1360,#1361,#1362,#1363,#1364,#1365,#1366,#1367,#1368,#1369,
    #1370,#1371,#1372,#1373),.UNSPECIFIED.,.F.,.F.,(8,6,6,8),(
    4.712388980385,5.290612805865,5.579724718606,5.868836631346),
  .UNSPECIFIED.);
#1354 = CARTESIAN_POINT('',(-0.644922321259,1.614869854E-16));
#1355 = CARTESIAN_POINT('',(-0.644922321259,-6.601221800519E-02));
#1356 = CARTESIAN_POINT('',(-0.648746615809,-0.132024435545));
#1357 = CARTESIAN_POINT('',(-0.656394570739,-0.197770801122));
#1358 = CARTESIAN_POINT('',(-0.668049511023,-0.26298547233));
#1359 = CARTESIAN_POINT('',(-0.68406820533,-0.327367344852));
#1360 = CARTESIAN_POINT('',(-0.705045225711,-0.390545439198));
#1361 = CARTESIAN_POINT('',(-0.745245806273,-0.482723694631));
#1362 = CARTESIAN_POINT('',(-0.760101764075,-0.51301830731));
#1363 = CARTESIAN_POINT('',(-0.776521779471,-0.542816141727));
#1364 = CARTESIAN_POINT('',(-0.794629785312,-0.572042595011));
#1365 = CARTESIAN_POINT('',(-0.814568021158,-0.600610954152));
#1366 = CARTESIAN_POINT('',(-0.836492949412,-0.628419513114));
#1367 = CARTESIAN_POINT('',(-0.884635891433,-0.682277727134));
#1368 = CARTESIAN_POINT('',(-0.910853839135,-0.708327440893));
#1369 = CARTESIAN_POINT('',(-0.939377875314,-0.733377888469));
#1370 = CARTESIAN_POINT('',(-0.970369338202,-0.757292427269));
#1371 = CARTESIAN_POINT('',(-1.003978988321,-0.779912957689));
#1372 = CARTESIAN_POINT('',(-1.040313772355,-0.801061935335));
#1373 = CARTESIAN_POINT('',(-1.079382655076,-0.820551082808));
#1374 = ( GEOMETRIC_REPRESENTATION_CONTEXT(2) 
PARAMETRIC_REPRESENTATION_CONTEXT() REPRESENTATION_CONTEXT('2D SPACE',''
  ) );
#1375 = PCURVE('',#43,#1376);
#1376 = DEFINITIONAL_REPRESENTATION('',(#1377),#1381);
#1377 = CIRCLE('',#1378,17.581222227138);
#1378 = AXIS2_PLACEMENT_2D('',#1379,#1380);
#1379 = CARTESIAN_POINT('',(270.,197.));
#1380 = DIRECTION('',(1.,0.));
#1381 = ( GEOMETRIC_REPRESENTATION_CONTEXT(2) 
PARAMETRIC_REPRESENTATION_CONTEXT() REPRESENTATION_CONTEXT('2D SPACE',''
  ) );
#1382 = ORIENTED_EDGE('',*,*,#361,.T.);
#1383 = ORIENTED_EDGE('',*,*,#506,.T.);
#1384 = ORIENTED_EDGE('',*,*,#1187,.T.);
#1385 = ORIENTED_EDGE('',*,*,#111,.F.);
#1386 = ADVANCED_FACE('',(#1387),#43,.T.);
#1387 = FACE_BOUND('',#1388,.T.);
#1388 = EDGE_LOOP('',(#1389,#1390,#1391,#1392));
#1389 = ORIENTED_EDGE('',*,*,#141,.T.);
#1390 = ORIENTED_EDGE('',*,*,#21,.T.);
#1391 = ORIENTED_EDGE('',*,*,#1344,.T.);
#1392 = ORIENTED_EDGE('',*,*,#340,.F.);
#1393 = ( GEOMETRIC_REPRESENTATION_CONTEXT(3) 
GLOBAL_UNCERTAINTY_ASSIGNED_CONTEXT((#1397)) 
GLOBAL_UNIT_ASSIGNED_CONTEXT((#1394,#1395,#1396)) REPRESENTATION_CONTEXT
('Context #1','3D Context with UNIT and UNCERTAINTY') );
#1394 = ( LENGTH_UNIT() NAMED_UNIT(*) SI_UNIT(.MILLI.,.METRE.) );
#1395 = ( NAMED_UNIT(*) PLANE_ANGLE_UNIT() SI_UNIT($,.RADIAN.) );
#1396 = ( NAMED_UNIT(*) SI_UNIT($,.STERADIAN.) SOLID_ANGLE_UNIT() );
#1397 = UNCERTAINTY_MEASURE_WITH_UNIT(LENGTH_MEASURE(5.E-07),#1394,
  'distance_accuracy_value','confusion accuracy');
#1398 = PRODUCT_RELATED_PRODUCT_CATEGORY('part',$,(#7));
#1399 = MECHANICAL_DESIGN_GEOMETRIC_PRESENTATION_REPRESENTATION('',(
    #1400),#1393);
#1400 = STYLED_ITEM('color',(#1401),#15);
#1401 = PRESENTATION_STYLE_ASSIGNMENT((#1402,#1408));
#1402 = SURFACE_STYLE_USAGE(.BOTH.,#1403);
#1403 = SURFACE_SIDE_STYLE('',(#1404));
#1404 = SURFACE_STYLE_FILL_AREA(#1405);
#1405 = FILL_AREA_STYLE('',(#1406));
#1406 = FILL_AREA_STYLE_COLOUR('',#1407);
#1407 = COLOUR_RGB('',0.968627457133,0.97254901356,0.980392145089);
#1408 = CURVE_STYLE('',#1409,POSITIVE_LENGTH_MEASURE(0.1),#1407);
#1409 = DRAUGHTING_PRE_DEFINED_CURVE_FONT('continuous');
ENDSEC;
END-ISO-10303-21;
