ISO-10303-21;
HEADER;
FILE_DESCRIPTION(('Open CASCADE Model'),'2;1');
FILE_NAME('PHYSICAL_MOUNT_V2_MINIMAL_DISPLAY_UI','2026-07-31T22:40:58',(
    'Author'),('Open CASCADE'),'Open CASCADE STEP processor 7.9',
  'build123d','Unknown');
FILE_SCHEMA(('AUTOMOTIVE_DESIGN { 1 0 10303 214 1 1 1 1 }'));
ENDSEC;
DATA;
#1 = APPLICATION_PROTOCOL_DEFINITION('international standard',
  'automotive_design',2000,#2);
#2 = APPLICATION_CONTEXT(
  'core data for automotive mechanical design processes');
#3 = SHAPE_DEFINITION_REPRESENTATION(#4,#10);
#4 = PRODUCT_DEFINITION_SHAPE('','',#5);
#5 = PRODUCT_DEFINITION('design','',#6,#9);
#6 = PRODUCT_DEFINITION_FORMATION('','',#7);
#7 = PRODUCT('PHYSICAL_MOUNT_V2_MINIMAL_DISPLAY_UI',
  'PHYSICAL_MOUNT_V2_MINIMAL_DISPLAY_UI','',(#8));
#8 = PRODUCT_CONTEXT('',#2,'mechanical');
#9 = PRODUCT_DEFINITION_CONTEXT('part definition',#2,'design');
#10 = SHAPE_REPRESENTATION('',(#11,#15,#19),#23);
#11 = AXIS2_PLACEMENT_3D('',#12,#13,#14);
#12 = CARTESIAN_POINT('',(0.,0.,0.));
#13 = DIRECTION('',(0.,0.,1.));
#14 = DIRECTION('',(1.,0.,-0.));
#15 = AXIS2_PLACEMENT_3D('',#16,#17,#18);
#16 = CARTESIAN_POINT('',(-24.,-55.,70.));
#17 = DIRECTION('',(0.,0.,1.));
#18 = DIRECTION('',(1.,0.,-0.));
#19 = AXIS2_PLACEMENT_3D('',#20,#21,#22);
#20 = CARTESIAN_POINT('',(24.,-55.,70.));
#21 = DIRECTION('',(0.,0.,1.));
#22 = DIRECTION('',(1.,0.,-0.));
#23 = ( GEOMETRIC_REPRESENTATION_CONTEXT(3) 
GLOBAL_UNCERTAINTY_ASSIGNED_CONTEXT((#27)) GLOBAL_UNIT_ASSIGNED_CONTEXT(
(#24,#25,#26)) REPRESENTATION_CONTEXT('Context #1',
  '3D Context with UNIT and UNCERTAINTY') );
#24 = ( LENGTH_UNIT() NAMED_UNIT(*) SI_UNIT(.MILLI.,.METRE.) );
#25 = ( NAMED_UNIT(*) PLANE_ANGLE_UNIT() SI_UNIT($,.RADIAN.) );
#26 = ( NAMED_UNIT(*) SI_UNIT($,.STERADIAN.) SOLID_ANGLE_UNIT() );
#27 = UNCERTAINTY_MEASURE_WITH_UNIT(LENGTH_MEASURE(1.E-06),#24,
  'distance_accuracy_value','confusion accuracy');
#28 = PRODUCT_RELATED_PRODUCT_CATEGORY('part',$,(#7));
#29 = SHAPE_DEFINITION_REPRESENTATION(#30,#36);
#30 = PRODUCT_DEFINITION_SHAPE('','',#31);
#31 = PRODUCT_DEFINITION('design','',#32,#35);
#32 = PRODUCT_DEFINITION_FORMATION('','',#33);
#33 = PRODUCT('COMPOUND','COMPOUND','',(#34));
#34 = PRODUCT_CONTEXT('',#2,'mechanical');
#35 = PRODUCT_DEFINITION_CONTEXT('part definition',#2,'design');
#36 = ADVANCED_BREP_SHAPE_REPRESENTATION('',(#11,#37),#80);
#37 = MANIFOLD_SOLID_BREP('',#38);
#38 = CLOSED_SHELL('',(#39));
#39 = ADVANCED_FACE('',(#40),#44,.T.);
#40 = FACE_BOUND('',#41,.T.);
#41 = VERTEX_LOOP('',#42);
#42 = VERTEX_POINT('',#43);
#43 = CARTESIAN_POINT('',(5.510910596163E-16,-1.199807826129E-32,-13.));
#44 = ( BOUNDED_SURFACE() B_SPLINE_SURFACE(2,2,(
    (#45,#46,#47,#48,#49)
    ,(#50,#51,#52,#53,#54)
    ,(#55,#56,#57,#58,#59)
    ,(#60,#61,#62,#63,#64)
    ,(#65,#66,#67,#68,#69)
    ,(#70,#71,#72,#73,#74)
    ,(#75,#76,#77,#78,#79
)),.UNSPECIFIED.,.T.,.F.,.F.) B_SPLINE_SURFACE_WITH_KNOTS((1,2,2,2,2,1),
  (3,2,3),(-2.094395102393,0.,2.094395102393,4.188790204786,
    6.28318530718,8.377580409573),(-1.570796326795,0.,1.570796326795),
.UNSPECIFIED.) GEOMETRIC_REPRESENTATION_ITEM() RATIONAL_B_SPLINE_SURFACE
((
    (1.,0.707106781187,1.,0.707106781187,1.)
    ,(0.5,0.353553390593,0.5,0.353553390593,0.5)
    ,(1.,0.707106781187,1.,0.707106781187,1.)
    ,(0.5,0.353553390593,0.5,0.353553390593,0.5)
    ,(1.,0.707106781187,1.,0.707106781187,1.)
    ,(0.5,0.353553390593,0.5,0.353553390593,0.5)
,(1.,0.707106781187,1.,0.707106781187,1.
))) REPRESENTATION_ITEM('') SURFACE() );
#45 = CARTESIAN_POINT('',(5.510910596163E-16,0.,-13.));
#46 = CARTESIAN_POINT('',(9.,0.,-13.));
#47 = CARTESIAN_POINT('',(9.,0.,0.));
#48 = CARTESIAN_POINT('',(9.,0.,13.));
#49 = CARTESIAN_POINT('',(5.510910596163E-16,0.,13.));
#50 = CARTESIAN_POINT('',(5.510910596163E-16,8.484601909799E-17,-13.));
#51 = CARTESIAN_POINT('',(9.,1.385640646055,-13.));
#52 = CARTESIAN_POINT('',(9.,1.385640646055,0.));
#53 = CARTESIAN_POINT('',(9.,1.385640646055,13.));
#54 = CARTESIAN_POINT('',(5.510910596163E-16,8.484601909799E-17,13.));
#55 = CARTESIAN_POINT('',(-2.755455298082E-16,4.2423009549E-17,-13.));
#56 = CARTESIAN_POINT('',(-4.5,0.692820323028,-13.));
#57 = CARTESIAN_POINT('',(-4.5,0.692820323028,0.));
#58 = CARTESIAN_POINT('',(-4.5,0.692820323028,13.));
#59 = CARTESIAN_POINT('',(-2.755455298082E-16,4.2423009549E-17,13.));
#60 = CARTESIAN_POINT('',(-1.102182119233E-15,1.199807826129E-32,-13.));
#61 = CARTESIAN_POINT('',(-18.,1.959434878636E-16,-13.));
#62 = CARTESIAN_POINT('',(-18.,1.959434878636E-16,0.));
#63 = CARTESIAN_POINT('',(-18.,1.959434878636E-16,13.));
#64 = CARTESIAN_POINT('',(-1.102182119233E-15,1.199807826129E-32,13.));
#65 = CARTESIAN_POINT('',(-2.755455298082E-16,-4.2423009549E-17,-13.));
#66 = CARTESIAN_POINT('',(-4.5,-0.692820323028,-13.));
#67 = CARTESIAN_POINT('',(-4.5,-0.692820323028,0.));
#68 = CARTESIAN_POINT('',(-4.5,-0.692820323028,13.));
#69 = CARTESIAN_POINT('',(-2.755455298082E-16,-4.2423009549E-17,13.));
#70 = CARTESIAN_POINT('',(5.510910596163E-16,-8.484601909799E-17,-13.));
#71 = CARTESIAN_POINT('',(9.,-1.385640646055,-13.));
#72 = CARTESIAN_POINT('',(9.,-1.385640646055,0.));
#73 = CARTESIAN_POINT('',(9.,-1.385640646055,13.));
#74 = CARTESIAN_POINT('',(5.510910596163E-16,-8.484601909799E-17,13.));
#75 = CARTESIAN_POINT('',(5.510910596163E-16,0.,-13.));
#76 = CARTESIAN_POINT('',(9.,0.,-13.));
#77 = CARTESIAN_POINT('',(9.,0.,0.));
#78 = CARTESIAN_POINT('',(9.,0.,13.));
#79 = CARTESIAN_POINT('',(5.510910596163E-16,0.,13.));
#80 = ( GEOMETRIC_REPRESENTATION_CONTEXT(3) 
GLOBAL_UNCERTAINTY_ASSIGNED_CONTEXT((#84)) GLOBAL_UNIT_ASSIGNED_CONTEXT(
(#81,#82,#83)) REPRESENTATION_CONTEXT('Context #1',
  '3D Context with UNIT and UNCERTAINTY') );
#81 = ( LENGTH_UNIT() NAMED_UNIT(*) SI_UNIT(.MILLI.,.METRE.) );
#82 = ( NAMED_UNIT(*) PLANE_ANGLE_UNIT() SI_UNIT($,.RADIAN.) );
#83 = ( NAMED_UNIT(*) SI_UNIT($,.STERADIAN.) SOLID_ANGLE_UNIT() );
#84 = UNCERTAINTY_MEASURE_WITH_UNIT(LENGTH_MEASURE(1.E-06),#81,
  'distance_accuracy_value','confusion accuracy');
#85 = CONTEXT_DEPENDENT_SHAPE_REPRESENTATION(#86,#88);
#86 = ( REPRESENTATION_RELATIONSHIP('','',#36,#10) 
REPRESENTATION_RELATIONSHIP_WITH_TRANSFORMATION(#87) 
SHAPE_REPRESENTATION_RELATIONSHIP() );
#87 = ITEM_DEFINED_TRANSFORMATION('','',#11,#15);
#88 = PRODUCT_DEFINITION_SHAPE('Placement','Placement of an item',#89);
#89 = NEXT_ASSEMBLY_USAGE_OCCURRENCE('1','=>[0:1:1:2]','',#5,#31,$);
#90 = PRODUCT_RELATED_PRODUCT_CATEGORY('part',$,(#33));
#91 = SHAPE_DEFINITION_REPRESENTATION(#92,#98);
#92 = PRODUCT_DEFINITION_SHAPE('','',#93);
#93 = PRODUCT_DEFINITION('design','',#94,#97);
#94 = PRODUCT_DEFINITION_FORMATION('','',#95);
#95 = PRODUCT('COMPOUND','COMPOUND','',(#96));
#96 = PRODUCT_CONTEXT('',#2,'mechanical');
#97 = PRODUCT_DEFINITION_CONTEXT('part definition',#2,'design');
#98 = ADVANCED_BREP_SHAPE_REPRESENTATION('',(#11,#99),#142);
#99 = MANIFOLD_SOLID_BREP('',#100);
#100 = CLOSED_SHELL('',(#101));
#101 = ADVANCED_FACE('',(#102),#106,.T.);
#102 = FACE_BOUND('',#103,.T.);
#103 = VERTEX_LOOP('',#104);
#104 = VERTEX_POINT('',#105);
#105 = CARTESIAN_POINT('',(5.510910596163E-16,-1.199807826129E-32,-13.)
  );
#106 = ( BOUNDED_SURFACE() B_SPLINE_SURFACE(2,2,(
    (#107,#108,#109,#110,#111)
    ,(#112,#113,#114,#115,#116)
    ,(#117,#118,#119,#120,#121)
    ,(#122,#123,#124,#125,#126)
    ,(#127,#128,#129,#130,#131)
    ,(#132,#133,#134,#135,#136)
    ,(#137,#138,#139,#140,#141
)),.UNSPECIFIED.,.T.,.F.,.F.) B_SPLINE_SURFACE_WITH_KNOTS((1,2,2,2,2,1),
  (3,2,3),(-2.094395102393,0.,2.094395102393,4.188790204786,
    6.28318530718,8.377580409573),(-1.570796326795,0.,1.570796326795),
.UNSPECIFIED.) GEOMETRIC_REPRESENTATION_ITEM() RATIONAL_B_SPLINE_SURFACE
((
    (1.,0.707106781187,1.,0.707106781187,1.)
    ,(0.5,0.353553390593,0.5,0.353553390593,0.5)
    ,(1.,0.707106781187,1.,0.707106781187,1.)
    ,(0.5,0.353553390593,0.5,0.353553390593,0.5)
    ,(1.,0.707106781187,1.,0.707106781187,1.)
    ,(0.5,0.353553390593,0.5,0.353553390593,0.5)
,(1.,0.707106781187,1.,0.707106781187,1.
))) REPRESENTATION_ITEM('') SURFACE() );
#107 = CARTESIAN_POINT('',(5.510910596163E-16,0.,-13.));
#108 = CARTESIAN_POINT('',(9.,0.,-13.));
#109 = CARTESIAN_POINT('',(9.,0.,0.));
#110 = CARTESIAN_POINT('',(9.,0.,13.));
#111 = CARTESIAN_POINT('',(5.510910596163E-16,0.,13.));
#112 = CARTESIAN_POINT('',(5.510910596163E-16,8.484601909799E-17,-13.));
#113 = CARTESIAN_POINT('',(9.,1.385640646055,-13.));
#114 = CARTESIAN_POINT('',(9.,1.385640646055,0.));
#115 = CARTESIAN_POINT('',(9.,1.385640646055,13.));
#116 = CARTESIAN_POINT('',(5.510910596163E-16,8.484601909799E-17,13.));
#117 = CARTESIAN_POINT('',(-2.755455298082E-16,4.2423009549E-17,-13.));
#118 = CARTESIAN_POINT('',(-4.5,0.692820323028,-13.));
#119 = CARTESIAN_POINT('',(-4.5,0.692820323028,0.));
#120 = CARTESIAN_POINT('',(-4.5,0.692820323028,13.));
#121 = CARTESIAN_POINT('',(-2.755455298082E-16,4.2423009549E-17,13.));
#122 = CARTESIAN_POINT('',(-1.102182119233E-15,1.199807826129E-32,-13.)
  );
#123 = CARTESIAN_POINT('',(-18.,1.959434878636E-16,-13.));
#124 = CARTESIAN_POINT('',(-18.,1.959434878636E-16,0.));
#125 = CARTESIAN_POINT('',(-18.,1.959434878636E-16,13.));
#126 = CARTESIAN_POINT('',(-1.102182119233E-15,1.199807826129E-32,13.));
#127 = CARTESIAN_POINT('',(-2.755455298082E-16,-4.2423009549E-17,-13.));
#128 = CARTESIAN_POINT('',(-4.5,-0.692820323028,-13.));
#129 = CARTESIAN_POINT('',(-4.5,-0.692820323028,0.));
#130 = CARTESIAN_POINT('',(-4.5,-0.692820323028,13.));
#131 = CARTESIAN_POINT('',(-2.755455298082E-16,-4.2423009549E-17,13.));
#132 = CARTESIAN_POINT('',(5.510910596163E-16,-8.484601909799E-17,-13.)
  );
#133 = CARTESIAN_POINT('',(9.,-1.385640646055,-13.));
#134 = CARTESIAN_POINT('',(9.,-1.385640646055,0.));
#135 = CARTESIAN_POINT('',(9.,-1.385640646055,13.));
#136 = CARTESIAN_POINT('',(5.510910596163E-16,-8.484601909799E-17,13.));
#137 = CARTESIAN_POINT('',(5.510910596163E-16,0.,-13.));
#138 = CARTESIAN_POINT('',(9.,0.,-13.));
#139 = CARTESIAN_POINT('',(9.,0.,0.));
#140 = CARTESIAN_POINT('',(9.,0.,13.));
#141 = CARTESIAN_POINT('',(5.510910596163E-16,0.,13.));
#142 = ( GEOMETRIC_REPRESENTATION_CONTEXT(3) 
GLOBAL_UNCERTAINTY_ASSIGNED_CONTEXT((#146)) GLOBAL_UNIT_ASSIGNED_CONTEXT
((#143,#144,#145)) REPRESENTATION_CONTEXT('Context #1',
  '3D Context with UNIT and UNCERTAINTY') );
#143 = ( LENGTH_UNIT() NAMED_UNIT(*) SI_UNIT(.MILLI.,.METRE.) );
#144 = ( NAMED_UNIT(*) PLANE_ANGLE_UNIT() SI_UNIT($,.RADIAN.) );
#145 = ( NAMED_UNIT(*) SI_UNIT($,.STERADIAN.) SOLID_ANGLE_UNIT() );
#146 = UNCERTAINTY_MEASURE_WITH_UNIT(LENGTH_MEASURE(1.E-06),#143,
  'distance_accuracy_value','confusion accuracy');
#147 = CONTEXT_DEPENDENT_SHAPE_REPRESENTATION(#148,#150);
#148 = ( REPRESENTATION_RELATIONSHIP('','',#98,#10) 
REPRESENTATION_RELATIONSHIP_WITH_TRANSFORMATION(#149) 
SHAPE_REPRESENTATION_RELATIONSHIP() );
#149 = ITEM_DEFINED_TRANSFORMATION('','',#11,#19);
#150 = PRODUCT_DEFINITION_SHAPE('Placement','Placement of an item',#151
  );
#151 = NEXT_ASSEMBLY_USAGE_OCCURRENCE('2','=>[0:1:1:3]','',#5,#93,$);
#152 = PRODUCT_RELATED_PRODUCT_CATEGORY('part',$,(#95));
#153 = SHAPE_DEFINITION_REPRESENTATION(#88,#154);
#154 = SHAPE_REPRESENTATION('',(#15),#80);
#155 = SHAPE_DEFINITION_REPRESENTATION(#150,#156);
#156 = SHAPE_REPRESENTATION('',(#19),#142);
#157 = SHAPE_DEFINITION_REPRESENTATION(#88,#158);
#158 = SHAPE_REPRESENTATION('',(#15),#80);
#159 = SHAPE_DEFINITION_REPRESENTATION(#150,#160);
#160 = SHAPE_REPRESENTATION('',(#19),#142);
#161 = MECHANICAL_DESIGN_GEOMETRIC_PRESENTATION_REPRESENTATION('',(#162)
  ,#80);
#162 = STYLED_ITEM('color',(#163),#37);
#163 = PRESENTATION_STYLE_ASSIGNMENT((#164,#170));
#164 = SURFACE_STYLE_USAGE(.BOTH.,#165);
#165 = SURFACE_SIDE_STYLE('',(#166));
#166 = SURFACE_STYLE_FILL_AREA(#167);
#167 = FILL_AREA_STYLE('',(#168));
#168 = FILL_AREA_STYLE_COLOUR('',#169);
#169 = COLOUR_RGB('',0.321568621761,0.839215683236,1.);
#170 = CURVE_STYLE('',#171,POSITIVE_LENGTH_MEASURE(0.1),#169);
#171 = DRAUGHTING_PRE_DEFINED_CURVE_FONT('continuous');
#172 = MECHANICAL_DESIGN_GEOMETRIC_PRESENTATION_REPRESENTATION('',(#173)
  ,#142);
#173 = STYLED_ITEM('color',(#174),#99);
#174 = PRESENTATION_STYLE_ASSIGNMENT((#175,#180));
#175 = SURFACE_STYLE_USAGE(.BOTH.,#176);
#176 = SURFACE_SIDE_STYLE('',(#177));
#177 = SURFACE_STYLE_FILL_AREA(#178);
#178 = FILL_AREA_STYLE('',(#179));
#179 = FILL_AREA_STYLE_COLOUR('',#169);
#180 = CURVE_STYLE('',#181,POSITIVE_LENGTH_MEASURE(0.1),#169);
#181 = DRAUGHTING_PRE_DEFINED_CURVE_FONT('continuous');
ENDSEC;
END-ISO-10303-21;
